<svg xmlns="http://www.w3.org/2000/svg" viewBox="0 0 100 40"><defs><style>.cls-1{opacity:0;}.cls-2{fill:#dcff55;fill-opacity:0.5;}.cls-3{fill:#67787a;}.cls-4{fill:#d0d9da;}.cls-5{fill:#fff;}.cls-6{fill:#798688;}.cls-7{fill:#4d5a5c;}</style></defs><g id="レイヤー_2" data-name="レイヤー 2"><g id="system_button"><g id="auto"><g id="gide" class="cls-1"><rect class="cls-2" width="100" height="40"/></g><g id="back"><polygon class="cls-3" points="100 18.37 0 32.42 0 20.42 100 6.37 100 18.37"/><polygon class="cls-4" points="100 16.37 0 30.42 0 18.42 100 4.37 100 16.37"/></g><g id="text"><path class="cls-3" d="M18.15,36.66A2,2,0,0,1,16.26,34l7.68-21.93a2,2,0,0,1,1.61-1.32l6.12-.86.28,0a2,2,0,0,1,1.88,1.33l7.11,19.85a2,2,0,0,1-1.6,2.65l-3.15.45-.28,0a2,2,0,0,1-1.67-.9l-4.12-6.22-2.83.33-4.65,7.91a2.05,2.05,0,0,1-1.45,1l-2.76.38A1.32,1.32,0,0,1,18.15,36.66Zm28.09-4.12a4.58,4.58,0,0,1-.53,0c-3.32-.35-4.84-3.27-5.33-4.23-1.34-2.6-1.25-5.74-1.16-8.51,0-.51,0-1,0-1.51a2,2,0,0,1,1.72-2L43.31,16a1.37,1.37,0,0,1,.28,0,2,2,0,0,1,1.24.43,2,2,0,0,1,.75,1.37,24.27,24.27,0,0,0,.7,3.92c.11.33.25.5.43.5h.15c.35-.07.78-.58,1-1.25a36.35,36.35,0,0,0,.74-4.18A2,2,0,0,1,50.36,15l1.73-.25a1.79,1.79,0,0,1,.57-.09h.05a2.08,2.08,0,0,1,1.3.47,2,2,0,0,1,1.45-.85l1.5-.14c.13-2.82.34-6.18.35-6.37A2,2,0,0,1,59,5.9l4.29-.6a1.37,1.37,0,0,1,.28,0,2,2,0,0,1,1.87,1.28c.17.45.18.49.35,6.35h0L67,12.73a1.73,1.73,0,0,1,.32,0,2,2,0,0,1,2,2v2.82a2,2,0,0,1-.76,1.57l.22.17a2,2,0,0,1,.55.79,9.74,9.74,0,0,1,.48-2.13c1.35-4,4.86-6.79,8.53-6.79a6.92,6.92,0,0,1,1.11.09,7.52,7.52,0,0,1,5.71,4.64,1.42,1.42,0,0,1,.17.35,8.66,8.66,0,0,1-.8,7.66,9.36,9.36,0,0,1-7.78,4.63h0a7.41,7.41,0,0,1-6-3,7.05,7.05,0,0,1-1.27-2.78v5a2,2,0,0,1-1.56,1.95l-1.26.22L65.5,30a9.86,9.86,0,0,1-1.67.15,6.83,6.83,0,0,1-5.21-2.25c-1.89-2-2.1-4.68-2-7.1l-1,.08h-.17a2.09,2.09,0,0,1-.78-.16c-.06,1.76-.18,3.54-.31,4.36a8.15,8.15,0,0,1-3.47,6A9.3,9.3,0,0,1,46.24,32.54ZM77.47,20.41l.61-.73-.29-.24-.62.74Z"/><path class="cls-5" d="M45.71,30.51a4.58,4.58,0,0,0,.53,0,9.3,9.3,0,0,0,4.67-1.4,8.15,8.15,0,0,0,3.47-6c.13-.82.25-2.6.31-4.36a2.09,2.09,0,0,0,.78.16h.17l1-.08c-.1,2.42.11,5.06,2,7.1a6.83,6.83,0,0,0,5.21,2.25A9.86,9.86,0,0,0,65.5,28l1.15-.19,1.26-.22a2,2,0,0,0,1.56-1.95v-5a7.05,7.05,0,0,0,1.27,2.78,7.41,7.41,0,0,0,6,3h0a9.36,9.36,0,0,0,7.78-4.63,8.66,8.66,0,0,0,.8-7.66,1.42,1.42,0,0,0-.17-.35,7.52,7.52,0,0,0-5.71-4.64,6.92,6.92,0,0,0-1.11-.09c-3.67,0-7.18,2.79-8.53,6.79a9.74,9.74,0,0,0-.48,2.13,2,2,0,0,0-.55-.79l-.22-.17a2,2,0,0,0,.76-1.57V12.7a2,2,0,0,0-2-2,1.73,1.73,0,0,0-.32,0l-1.18.19h0c-.17-5.86-.18-5.9-.35-6.35A2,2,0,0,0,63.6,3.28a1.37,1.37,0,0,0-.28,0L59,3.9a2,2,0,0,0-1.72,1.85c0,.19-.22,3.55-.35,6.37l-1.5.14a2,2,0,0,0-1.45.85,2.08,2.08,0,0,0-1.3-.47h-.05a1.79,1.79,0,0,0-.57.09L50.36,13a2,2,0,0,0-1.71,1.75,36.35,36.35,0,0,1-.74,4.18c-.27.67-.7,1.18-1,1.25h-.15c-.18,0-.32-.17-.43-.5a24.27,24.27,0,0,1-.7-3.92,2,2,0,0,0-.75-1.37A2,2,0,0,0,43.59,14a1.37,1.37,0,0,0-.28,0L41,14.3a2,2,0,0,0-1.72,2c0,.49,0,1,0,1.51-.09,2.77-.18,5.91,1.16,8.51C40.87,27.24,42.39,30.16,45.71,30.51Z"/><polygon class="cls-5" points="77.17 18.18 77.47 18.41 78.08 17.68 77.79 17.44 77.17 18.18"/><path class="cls-5" d="M16.61,33.93a2,2,0,0,0,1.54.73,1.32,1.32,0,0,0,.28,0l2.76-.38a2.05,2.05,0,0,0,1.45-1l4.65-7.91,2.83-.33,4.12,6.22a2,2,0,0,0,1.67.9l.28,0,3.15-.45a2,2,0,0,0,1.6-2.65L33.83,9.2A2,2,0,0,0,32,7.87l-.28,0-6.12.86a2,2,0,0,0-1.61,1.32L16.26,32A2,2,0,0,0,16.61,33.93Z"/><path class="cls-6" d="M52.71,14.64a61.85,61.85,0,0,1-.3,8.17c-.3,1.84-.84,3.54-2.58,4.65a7.09,7.09,0,0,1-3.93,1.06c-1.83-.19-2.94-1.59-3.75-3.16-1.32-2.58-.93-6.11-.9-9.08L43.59,16a27.42,27.42,0,0,0,.78,4.33,2.45,2.45,0,0,0,2.85,1.85,3.78,3.78,0,0,0,2.55-2.49A34.75,34.75,0,0,0,50.64,15l2.13-.3Z"/><path class="cls-7" d="M39.06,29.72l-3.15.45-4.8-7.25-5,.59-5.16,8.76-2.76.39,7.68-21.93L32,9.87Zm-8.64-8.65L28.68,19l-1.74,2.56Zm25.23-6.82L58.32,14l-.18,2.69-2.67.23Zm9.51,4.58a8.55,8.55,0,0,0,2.31-.06v6.9c-.36.08-1.35.22-2.31.39a5.22,5.22,0,0,1-5.07-1.48c-2.28-2.47-1.29-6.36-1.23-9.58,0-2.55.45-9.12.45-9.12l4.29-.6c.12.31.27,9.08.42,11.7a1.93,1.93,0,0,0,1.17,1.81Zm2.16-3.31L64.47,16l0-2.82,2.82-.46Zm16.14-.62a6.71,6.71,0,0,1-.63,5.91c-2.67,4.25-7.86,5-10.5,1.48a6.17,6.17,0,0,1-.63-5.73c1.14-3.37,4.29-5.86,7.44-5.37a5.64,5.64,0,0,1,4.29,3.72Zm-2.55,2.49-3.39-2.73L74.28,18.5l3.51,2.66Z"/></g></g></g></g></svg>