<svg xmlns="http://www.w3.org/2000/svg" viewBox="0 0 52 48"><defs><style>.cls-1{opacity:0;}.cls-2,.cls-4{fill:#dcff55;}.cls-2{opacity:0.5;}.cls-3{fill:#4d5a5c;}.cls-5{fill:#fff;}.cls-6{fill:#08a;}</style></defs><g id="レイヤー_2" data-name="レイヤー 2"><g id="system_button_hover" data-name="system_button hover"><g id="close2"><g id="gide" class="cls-1"><rect class="cls-2" width="52" height="48"/></g><g id="base"><path class="cls-3" d="M3,6,0,28.92l9.83,14L31.22,48s11.07-7.11,12.05-8.1S52,23.06,52,23.06L40.32,5,15.86,2Z"/><path class="cls-4" d="M3,4,0,26.93l9.83,14L31.22,46S42.29,38.9,43.27,37.9,52,21.07,52,21.07L40.32,3,15.86,0Z"/></g><g id="icon"><polygon class="cls-3" points="12.91 30.67 19.74 23.75 12.91 16.82 19.42 10.22 26.25 17.14 33.08 10.22 39.59 16.82 32.77 23.75 39.59 30.67 33.08 37.28 26.25 30.35 19.42 37.28 12.91 30.67"/><polygon class="cls-5" points="12.91 28.67 19.74 21.75 12.91 14.82 19.42 8.22 26.25 15.14 33.08 8.22 39.59 14.82 32.77 21.75 39.59 28.67 33.08 35.28 26.25 28.35 19.42 35.28 12.91 28.67"/><polygon class="cls-6" points="15.69 28.67 22.52 21.75 15.69 14.82 19.42 11.04 26.25 17.96 33.08 11.04 36.81 14.82 29.98 21.75 36.81 28.67 33.08 32.46 26.25 25.53 19.42 32.46 15.69 28.67"/></g></g></g></g></svg>