<svg xmlns="http://www.w3.org/2000/svg" viewBox="0 0 100 40"><defs><style>.cls-1{opacity:0;}.cls-2{fill:#dcff55;fill-opacity:0.5;}.cls-3{fill:#67787a;}.cls-4{fill:#d0d9da;}.cls-5{fill:#fff;}.cls-6{fill:#798688;}.cls-7{fill:#4d5a5c;}</style></defs><g id="レイヤー_2" data-name="レイヤー 2"><g id="system_button"><g id="load"><g id="gide" class="cls-1"><rect class="cls-2" width="100" height="40"/></g><g id="back"><polygon class="cls-3" points="100 18.37 0 32.42 0 20.42 100 6.37 100 18.37"/><polygon class="cls-4" points="100 16.37 0 30.42 0 18.42 100 4.37 100 16.37"/></g><g id="text"><path class="cls-3" d="M19,36.52a2,2,0,0,1-2-1.93c-.05-1.43,0-7.3,0-12.49,0-3.85,0-7.83,0-8.34a2,2,0,0,1,1.72-2.07l1.52-.21c1.75-.24,3.56-.48,5.15-.82a2,2,0,0,1,.41,0A2,2,0,0,1,27,11a2,2,0,0,1,.8,1.45c.13,1.76.66,9.27,1,14.9l6.91-1a1.37,1.37,0,0,1,.28,0,2.12,2.12,0,0,1,.83.17,9.17,9.17,0,0,1,.46-4.06c1.35-4,4.86-6.79,8.54-6.79a6.71,6.71,0,0,1,1.1.09,7.55,7.55,0,0,1,5.72,4.65,1.8,1.8,0,0,1,.17.34c.06.16.11.32.16.48a8.84,8.84,0,0,1,1.48-2.74A15.71,15.71,0,0,1,64.9,13l1.25-.18a1.42,1.42,0,0,1,.29,0,2,2,0,0,1,2,1.79c0,.05.33,3.19.65,6.62a9.88,9.88,0,0,1,2.74-7,9.37,9.37,0,0,1,5.24-2.91c.26-6.72.28-6.77.45-7.13a2,2,0,0,1,1.53-1.12l4.2-.59.27,0A2.07,2.07,0,0,1,84.85,3a2,2,0,0,1,.68,1.51c.14,3.11.3,9.35.43,14.35.07,2.69.13,5,.17,6.29a2,2,0,0,1-1.72,2.05l-2,.28-1,.15a28.73,28.73,0,0,1-4.27.43A8.81,8.81,0,0,1,72,26.61,6.63,6.63,0,0,1,69.17,22c.18,1.91.35,3.84.46,5.33A2,2,0,0,1,68,29.44c-.94.17-1.88.28-2.79.4-.7.09-1.4.17-2.1.29l-.32,0a2,2,0,0,1-1-.25,12.43,12.43,0,0,1-3,.85,6.22,6.22,0,0,1-1,.09,5.07,5.07,0,0,1-4.71-3,6.4,6.4,0,0,1-.35-.93A8.9,8.9,0,0,1,52,28.44a9.33,9.33,0,0,1-7.78,4.63h0a7.41,7.41,0,0,1-6-3L38,29.83l.07,2.06a2,2,0,0,1-1.7,2s-15,2.22-17.12,2.55ZM44.94,25l.6-.73L45.25,24l-.62.73Z"/><polygon class="cls-5" points="44.63 22.75 44.94 22.98 45.54 22.25 45.25 22.02 44.63 22.75"/><path class="cls-5" d="M17,32.59a2,2,0,0,0,2,1.93l.3,0c2.13-.33,17.12-2.55,17.12-2.55a2,2,0,0,0,1.7-2.05L38,27.83l.17.24a7.41,7.41,0,0,0,6,3h0A9.33,9.33,0,0,0,52,26.44a8.9,8.9,0,0,0,.76-1.51,6.4,6.4,0,0,0,.35.93,5.07,5.07,0,0,0,4.71,3,6.22,6.22,0,0,0,1-.09,12.43,12.43,0,0,0,3-.85,2,2,0,0,0,1,.25l.32,0c.7-.12,1.4-.2,2.1-.29.91-.12,1.85-.23,2.79-.4a2,2,0,0,0,1.65-2.12c-.11-1.49-.28-3.42-.46-5.33A6.63,6.63,0,0,0,72,24.61,8.81,8.81,0,0,0,77.13,26a28.73,28.73,0,0,0,4.27-.43l1-.15,2-.28a2,2,0,0,0,1.72-2.05c0-1.28-.1-3.6-.17-6.29-.13-5-.29-11.24-.43-14.35A2,2,0,0,0,84.85,1,2.07,2.07,0,0,0,83.53.47l-.27,0-4.2.59A2,2,0,0,0,77.53,2.2c-.17.36-.19.41-.45,7.13a9.37,9.37,0,0,0-5.24,2.91,9.88,9.88,0,0,0-2.74,7c-.32-3.43-.64-6.57-.65-6.62a2,2,0,0,0-2-1.79,1.42,1.42,0,0,0-.29,0L64.9,11a15.71,15.71,0,0,0-10.46,5.52A8.84,8.84,0,0,0,53,19.26c-.05-.16-.1-.32-.16-.48a1.8,1.8,0,0,0-.17-.34,7.55,7.55,0,0,0-5.72-4.65,6.71,6.71,0,0,0-1.1-.09c-3.68,0-7.19,2.79-8.54,6.79a9.17,9.17,0,0,0-.46,4.06,2.12,2.12,0,0,0-.83-.17,1.37,1.37,0,0,0-.28,0l-6.91,1c-.35-5.63-.88-13.14-1-14.9A2,2,0,0,0,27,9a2,2,0,0,0-1.2-.4,2,2,0,0,0-.41,0c-1.59.34-3.4.58-5.15.82l-1.52.21A2,2,0,0,0,17,11.76c0,.51,0,4.49,0,8.34C17,25.29,16.93,31.16,17,32.59Z"/><path class="cls-6" d="M50.92,19.48a6.72,6.72,0,0,1-.63,5.91c-2.67,4.24-7.85,4.94-10.49,1.47a6.17,6.17,0,0,1-.63-5.73c1.14-3.37,4.29-5.85,7.43-5.37a5.64,5.64,0,0,1,4.29,3.72ZM48.38,22,45,19.23l-3.24,3.85,3.5,2.65Z"/><path class="cls-7" d="M36.1,30s-15,2.23-17.12,2.56c-.09-2.51.06-19.6,0-20.85,2.25-.32,4.68-.6,6.8-1.05.15,2,.81,11.44,1.14,17L36,26.38ZM66.46,12.79s.84,8.28,1.17,12.68c-1.62.29-3.24.42-4.86.68,0-.42,0-.57-.06-1a11.29,11.29,0,0,1-4.19,1.61c-4.8.73-5-5.89-2.52-9A13.58,13.58,0,0,1,65.08,13l1.35-.19Zm-3.72,9-.09-3.64-3.53.41L59,22.3ZM83.53,2.53c.21,4.8.48,17,.6,20.65l-2,.28c-3.11.44-6.5,1.21-9-.5-2.79-1.89-2.7-6.25.18-9.36a7.89,7.89,0,0,1,4.92-2.46V12.4c-2.4.37-4.26,3-2.88,5.41.87,1.5,3.42,1.14,3.36,1.09.08-2.11.59-15.77.62-15.84l4.2-.59Z"/></g></g></g></g></svg>