<svg xmlns="http://www.w3.org/2000/svg" viewBox="0 0 100 40"><defs><style>.cls-1{opacity:0;}.cls-2{fill:#dcff55;fill-opacity:0.5;}.cls-3{fill:#67787a;}.cls-4{fill:#d0d9da;}.cls-5{fill:#fff;}.cls-6{fill:#798688;}.cls-7{fill:#4d5a5c;}</style></defs><g id="レイヤー_2" data-name="レイヤー 2"><g id="system_button"><g id="log"><g id="gide" class="cls-1"><rect class="cls-2" width="100" height="40"/></g><g id="back"><polygon class="cls-3" points="100 18.37 0 32.42 0 20.42 100 6.37 100 18.37"/><polygon class="cls-4" points="100 16.37 0 30.42 0 18.42 100 4.37 100 16.37"/></g><g id="text"><path class="cls-3" d="M66,37.38a2,2,0,0,1-2-2.06l.15-5.75a1.77,1.77,0,0,1,.2-.82,5.57,5.57,0,0,1-1-.5,6,6,0,0,1-2.21-2.58,8.8,8.8,0,0,1-.79,1.6,9.33,9.33,0,0,1-7.78,4.63,7.44,7.44,0,0,1-6-3l-.17-.24.07,2.06a2,2,0,0,1-1.7,2s-15,2.23-17.12,2.56l-.3,0a2,2,0,0,1-2-1.93c-.05-1.43,0-7.3,0-12.48,0-3.85,0-7.84,0-8.34a2,2,0,0,1,1.72-2.08l1.51-.21c1.76-.23,3.57-.48,5.16-.81a1.92,1.92,0,0,1,1.61.35,2,2,0,0,1,.8,1.45c.13,1.69.66,9.3,1,14.9l6.91-1,.28,0a2,2,0,0,1,.83.18,9.22,9.22,0,0,1,.46-4.07c1.35-4,4.86-6.78,8.54-6.78a6.71,6.71,0,0,1,1.1.08A7.57,7.57,0,0,1,61,19.26a2.44,2.44,0,0,1,.14.28,10.48,10.48,0,0,1,1.09-2.34,11.21,11.21,0,0,1,6.28-4.51A22.75,22.75,0,0,1,71.86,12l.23,0c1.58-.24,2.49-.36,3-.39a1.81,1.81,0,0,1,.4,0,2,2,0,0,1,1.77,1.06v0a1.86,1.86,0,0,1,.1.2,2,2,0,0,1,.14,1c0,1,.11,3.89.22,8.11l.12,4.55c.14,5.39-4.21,9.87-10.35,10.65-.48.07-.78.12-1,.16l-.27,0ZM68,24h.64c0-.81.07-1.65.1-2.46a2.5,2.5,0,0,0-.53.65,2.38,2.38,0,0,0-.3,1.66.71.71,0,0,0,.08.15Zm-14.64-.17.6-.74-.29-.23-.62.74Z"/><path class="cls-5" d="M67.86,21.83a.71.71,0,0,0,.08.15h.65c0-.81.07-1.65.1-2.46a2.5,2.5,0,0,0-.53.65A2.38,2.38,0,0,0,67.86,21.83Z"/><path class="cls-5" d="M25.35,31.41a2,2,0,0,0,2,1.93l.3,0c2.13-.33,17.12-2.56,17.12-2.56a2,2,0,0,0,1.7-2l-.07-2.06.17.24a7.44,7.44,0,0,0,6,3,9.33,9.33,0,0,0,7.78-4.63,8.8,8.8,0,0,0,.79-1.6,6,6,0,0,0,2.21,2.58,5.57,5.57,0,0,0,1,.5,1.77,1.77,0,0,0-.2.82L64,33.32a2,2,0,0,0,2,2.06l.28,0,.27,0c.18,0,.48-.09,1-.16C73.67,34.37,78,29.89,77.88,24.5L77.76,20c-.11-4.22-.18-7.07-.22-8.11a2,2,0,0,0-.14-1,1.86,1.86,0,0,0-.1-.2v0a2,2,0,0,0-1.77-1.06,1.81,1.81,0,0,0-.4,0c-.54,0-1.45.15-3,.39l-.23,0a22.75,22.75,0,0,0-3.35.67,11.21,11.21,0,0,0-6.28,4.51,10.48,10.48,0,0,0-1.09,2.34,2.44,2.44,0,0,0-.14-.28,7.57,7.57,0,0,0-5.72-4.65,6.71,6.71,0,0,0-1.1-.08c-3.68,0-7.19,2.79-8.54,6.78a9.22,9.22,0,0,0-.46,4.07,2,2,0,0,0-.83-.18l-.28,0-6.91,1c-.35-5.6-.88-13.21-1-14.9a2,2,0,0,0-.8-1.45,1.92,1.92,0,0,0-1.61-.35c-1.59.33-3.4.58-5.16.81l-1.51.21a2,2,0,0,0-1.72,2.08c0,.5,0,4.49,0,8.34C25.32,24.11,25.3,30,25.35,31.41Z"/><polygon class="cls-5" points="53 21.58 53.31 21.81 53.91 21.07 53.62 20.84 53 21.58"/><path class="cls-6" d="M59.29,18.3a6.72,6.72,0,0,1-.63,5.91c-2.67,4.24-7.85,4.94-10.49,1.47A6.16,6.16,0,0,1,47.54,20c1.14-3.37,4.29-5.85,7.44-5.36a5.63,5.63,0,0,1,4.28,3.71Zm-2.55,2.49-3.39-2.73L50.12,21.9l3.5,2.66Z"/><path class="cls-7" d="M44.47,28.78s-15,2.23-17.12,2.56c-.09-2.51.06-19.6,0-20.85,2.25-.31,4.68-.6,6.8-1.05.15,2,.81,11.44,1.14,17l9.06-1.27ZM75.52,11.55c0,.06.21,7.35.36,13,.12,4.69-3.9,8-8.6,8.62-.78.11-1.11.18-1.26.21l.15-5.76.42-.05c2.1-.3,3.8-1.32,3.89-3.43.12-2.33.24-5.44.33-7.4a13.11,13.11,0,0,0-2.16.54,4.14,4.14,0,0,0-2.21,1.88c-.9,1.53-.93,3.85.62,4.62a5,5,0,0,0,2.23.17v1.2a7.11,7.11,0,0,1-.84.11,7,7,0,0,1-4-.72A4.32,4.32,0,0,1,62.57,21a9.34,9.34,0,0,1,1.35-4.69,9.3,9.3,0,0,1,5.15-3.66A20.71,20.71,0,0,1,72.13,12a23,23,0,0,1,3.42-.39Z"/></g></g></g></g></svg>