<svg xmlns="http://www.w3.org/2000/svg" viewBox="0 0 100 40"><defs><style>.cls-1{opacity:0;}.cls-2{fill:#dcff55;fill-opacity:0.5;}.cls-3{fill:#67787a;}.cls-4{fill:#d0d9da;}.cls-5{fill:#fff;}.cls-6{fill:#798688;}.cls-7{fill:#4d5a5c;}</style></defs><g id="レイヤー_2" data-name="レイヤー 2"><g id="system_button"><g id="menu"><g id="gide" class="cls-1"><rect class="cls-2" width="100" height="40"/></g><g id="back"><polygon class="cls-3" points="100 18.37 0 32.42 0 20.42 100 6.37 100 18.37"/><polygon class="cls-4" points="100 16.37 0 30.42 0 18.42 100 4.37 100 16.37"/></g><g id="text"><path class="cls-3" d="M15.32,36.73a2,2,0,0,1-2-2s.45-17.56.54-20.78A2,2,0,0,1,15.53,12l1.73-.27L19,11.44l.33,0a2,2,0,0,1,1.53.72c1.65,2,3.42,4,5.28,6,.7-1.05,1.53-2.28,2.35-3.49,1.26-1.86,2.56-3.79,2.84-4.24a2,2,0,0,1,1.39-.93c1-.15,1.52-.21,2-.26s.79-.09,1.43-.19l.33,0a2,2,0,0,1,2,1.85c.16,2.25.49,7.93.78,13,.21,3.69.43,7.51.47,7.92a2,2,0,0,1-1.66,2.19c-1.07.19-7.4,1-7.66,1l-.26,0a2,2,0,0,1-1.34-.52,2,2,0,0,1-.66-1.53s.09-3.48.19-7.51c-.35.4-.57.66-.58.66a2,2,0,0,1-1.38.68h-.13a2,2,0,0,1-1.32-.51l-.6-.53c.06,1.17.12,2.31.18,3.34.11,2.17.22,4.21.25,4.5a2,2,0,0,1-1.65,2.21c-1.08.18-7.26,1-7.52,1Zm33.14-4.79a13.08,13.08,0,0,1-1.53-.09,8.81,8.81,0,0,1-5.65-2.92,7.39,7.39,0,0,1-1-7.27A10,10,0,0,1,48,15.31a6.29,6.29,0,0,1,1.05-.09,6.8,6.8,0,0,1,3.31.86c3.42,2,3.4,6.39,3.31,7.69A2,2,0,0,1,54,25.62l-.28,0a1.92,1.92,0,0,1,1,.47,2,2,0,0,1,.68,1.51v1.71a2,2,0,0,1-1.63,2,34.88,34.88,0,0,1-5.25.63Zm9.46-1a2,2,0,0,1-1.33-.5,2,2,0,0,1-.67-1.56c0-.89.2-7.3.35-12.88a1.89,1.89,0,0,1,.07-.71A2,2,0,0,1,58,13.85l5-.7.28,0a2.05,2.05,0,0,1,.49.06l.17,0c.61-.06,1.55-.14,2.51-.14a10.19,10.19,0,0,1,2.48.25A7.84,7.84,0,0,1,73,15.82a6.44,6.44,0,0,1,1.22,1.92,1.73,1.73,0,0,1,.11.32c.37,1.3.44,3.7.44,7.47v1.08c0,.05,0,.09,0,.13.17,2.19-1.66,2.36-6.55,2.82H68a2,2,0,0,1-2-1.74,2.35,2.35,0,0,1,0-.53c0-.5.1-2.82.1-3.08l0-.88c0-1.1.11-2.24.08-3.29,0-.36,0-.86-.94-1,.05,1.6.11,3.15.15,4.49.1,3,.15,4.3.15,4.55a2,2,0,0,1-1.69,2c-2.18.35-3.14.49-4.17.65l-1.53.24A1.67,1.67,0,0,1,57.92,31Zm23.77-3.39a4.33,4.33,0,0,1-.53,0c-3.33-.35-4.84-3.27-5.34-4.23-1.33-2.61-1.24-5.74-1.16-8.51,0-.52,0-1,0-1.52a2,2,0,0,1,1.72-2L78.76,11A1.27,1.27,0,0,1,79,11a2,2,0,0,1,2,1.8,25.26,25.26,0,0,0,.69,3.92c.11.33.26.5.44.5h.15a2,2,0,0,0,1-1.25,34.18,34.18,0,0,0,.75-4.18A2,2,0,0,1,85.81,10l1.72-.24a2.27,2.27,0,0,1,.58-.1h0a2.18,2.18,0,0,1,.72.13,2,2,0,0,1,1.31,2.06,69.41,69.41,0,0,1-.35,8.3,8.16,8.16,0,0,1-3.48,6A9.24,9.24,0,0,1,81.69,27.56Z"/><path class="cls-5" d="M13.32,32.68a2,2,0,0,0,2,2h.25c.26,0,6.44-.82,7.52-1a2,2,0,0,0,1.65-2.21c0-.29-.14-2.33-.25-4.5-.06-1-.12-2.17-.18-3.34l.6.53a2,2,0,0,0,1.32.51h.13A2,2,0,0,0,27.74,24s.23-.26.58-.66c-.1,4-.19,7.51-.19,7.51a2,2,0,0,0,.66,1.53,2,2,0,0,0,1.34.52l.26,0c.26,0,6.59-.83,7.66-1a2,2,0,0,0,1.66-2.19c0-.41-.26-4.23-.47-7.92-.29-5-.62-10.7-.78-12.95a2,2,0,0,0-2-1.85l-.33,0c-.64.1-1,.14-1.43.19s-1,.11-2,.26a2,2,0,0,0-1.39.93c-.28.45-1.58,2.38-2.84,4.24-.82,1.21-1.65,2.44-2.35,3.49-1.86-2-3.63-4-5.28-6a2,2,0,0,0-1.53-.72l-.33,0-1.69.27L15.53,10a2,2,0,0,0-1.67,1.92C13.77,15.12,13.32,32.68,13.32,32.68Z"/><path class="cls-5" d="M55.92,26.89a2,2,0,0,0,.67,1.56,2,2,0,0,0,1.33.5,1.67,1.67,0,0,0,.31,0l1.53-.24c1-.16,2-.3,4.17-.65a2,2,0,0,0,1.69-2c0-.25-.05-1.57-.15-4.55,0-1.34-.1-2.89-.15-4.49.93.16.94.66.94,1,0,1.05,0,2.19-.08,3.29l0,.88c0,.26-.07,2.58-.1,3.08a2.35,2.35,0,0,0,0,.53,2,2,0,0,0,2,1.74h.19c4.89-.46,6.72-.63,6.55-2.82,0,0,0-.08,0-.13V23.53c0-3.77-.07-6.17-.44-7.47a1.73,1.73,0,0,0-.11-.32A6.44,6.44,0,0,0,73,13.82a7.84,7.84,0,0,0-4.12-2.54A10.19,10.19,0,0,0,66.37,11c-1,0-1.9.08-2.51.14l-.17,0a2.05,2.05,0,0,0-.49-.06l-.28,0-5,.7a2,2,0,0,0-1.63,1.45,1.89,1.89,0,0,0-.07.71C56.12,19.59,56,26,55.92,26.89Z"/><path class="cls-5" d="M75.82,21.3c.5,1,2,3.88,5.34,4.23a4.33,4.33,0,0,0,.53,0,9.24,9.24,0,0,0,4.66-1.4,8.16,8.16,0,0,0,3.48-6,69.41,69.41,0,0,0,.35-8.3,2,2,0,0,0-1.31-2.06,2.18,2.18,0,0,0-.72-.13h0a2.27,2.27,0,0,0-.58.1L85.81,8A2,2,0,0,0,84.1,9.75a34.18,34.18,0,0,1-.75,4.18,2,2,0,0,1-1,1.25h-.15c-.18,0-.33-.17-.44-.5A25.26,25.26,0,0,1,81,10.77,2,2,0,0,0,79,9a1.27,1.27,0,0,0-.28,0l-2.34.32a2,2,0,0,0-1.72,2c0,.5,0,1,0,1.52C74.58,15.56,74.49,18.69,75.82,21.3Z"/><path class="cls-5" d="M41.28,26.93a8.81,8.81,0,0,0,5.65,2.92,13.08,13.08,0,0,0,1.53.09h.07a34.88,34.88,0,0,0,5.25-.63,2,2,0,0,0,1.63-2V25.64a2,2,0,0,0-.68-1.51,1.92,1.92,0,0,0-1-.47l.28,0a2,2,0,0,0,1.69-1.85c.09-1.3.11-5.72-3.31-7.69a6.8,6.8,0,0,0-3.31-.86,6.29,6.29,0,0,0-1.05.09,10,10,0,0,0-7.69,6.35A7.39,7.39,0,0,0,41.28,26.93Z"/><path class="cls-6" d="M46.49,22.74a2.92,2.92,0,0,0,.87,2c1.76,1.7,3.65,1.25,5.39,1l.66-.09v1.71a33.85,33.85,0,0,1-4.88.59,8.74,8.74,0,0,1-1.35-.08,6.81,6.81,0,0,1-4.35-2.21,5.36,5.36,0,0,1-.63-5.31,8,8,0,0,1,6.18-5.07,4.8,4.8,0,0,1,3,.54c2.43,1.4,2.37,5,2.31,5.83Zm3-2c0-.89-.54-1.66-1.56-1.52a1.91,1.91,0,0,0-1.53,2Z"/><path class="cls-7" d="M36.46,9c.3,4.1,1.17,20.17,1.26,20.94-1,.18-7.59,1-7.59,1s.18-7.29.33-13c-1.14,1.24-4.23,4.77-4.23,4.77S23,19.81,22,18.92c.33,5.56.65,12.35.71,12.82-1,.18-7.43,1-7.43,1s.45-17.55.54-20.77l3.42-.55q3.42,4.06,7.07,7.92c1.29-2,6-8.88,6.63-9.9,1.8-.28,2-.22,3.45-.46Zm21.79,4.86,5-.7c.18,5.8.42,12.48.42,12.93l-5.7.89c0-.9.21-7.47.36-13.1Zm14.06,2.61c.6,1.39.36,8.47.45,8.46s-3.51.55-4.74.66c0,0,.12-3.16.12-3.34.06-1.39.15-2.84.12-4.22,0-2.07-1.55-3.2-4.19-3V13.16a14.75,14.75,0,0,1,4.28.06,5.85,5.85,0,0,1,3.12,1.93,4.67,4.67,0,0,1,.87,1.35ZM88.15,9.65a62,62,0,0,1-.3,8.18c-.29,1.84-.83,3.53-2.57,4.65a7.09,7.09,0,0,1-3.93,1.06c-1.83-.19-2.94-1.6-3.75-3.16-1.32-2.58-.93-6.11-.9-9.09L79,11a27.42,27.42,0,0,0,.78,4.33,2.45,2.45,0,0,0,2.85,1.85,3.78,3.78,0,0,0,2.55-2.49A35,35,0,0,0,86.09,10l2.12-.3Z"/></g></g></g></g></svg>