<svg xmlns="http://www.w3.org/2000/svg" viewBox="0 0 100 40"><defs><style>.cls-1{opacity:0;}.cls-2,.cls-4{fill:#dcff55;}.cls-2{fill-opacity:0.5;}.cls-3{fill:#4d5a5c;}.cls-5{fill:#fff;}.cls-6{fill:#5fd38d;}.cls-7{fill:#08a;}</style></defs><g id="レイヤー_2" data-name="レイヤー 2"><g id="system_button_hover" data-name="system_button hover"><g id="qload2"><g id="gide" class="cls-1"><rect class="cls-2" width="100" height="40"/></g><g id="back"><polygon class="cls-3" points="100 18.37 0 32.42 0 20.42 100 6.37 100 18.37"/><polygon class="cls-4" points="100 16.37 0 30.42 0 18.42 100 4.37 100 16.37"/></g><g id="text"><path class="cls-3" d="M21.37,38.4A2,2,0,0,1,20.15,38l-2-1.51a8.66,8.66,0,0,1-1.51.64,9.18,9.18,0,0,1-2.88.46,8,8,0,0,1-2.41-.35,8.17,8.17,0,0,1-5.3-5.58,22.72,22.72,0,0,1-.84-8.48,10.44,10.44,0,0,1,4.21-7.82,10.8,10.8,0,0,1,6.53-2h.38c4,.08,7,3.19,7.37,7.73l.08,1.23A21.92,21.92,0,0,1,23,30.21l.8.66a4.54,4.54,0,0,1,4.48-4.24,3.66,3.66,0,0,1,3.7,3.15c0-2.32,0-5.67,0-9,0-3.6,0-7.33,0-7.8A2,2,0,0,1,33.69,11l1.41-.19c1.64-.22,3.33-.45,4.81-.76a2.05,2.05,0,0,1,1.62.36,2,2,0,0,1,.79,1.44c.12,1.56.61,8.55.94,13.77l6.31-.89.28,0a2.11,2.11,0,0,1,.61.1,8.74,8.74,0,0,1,.46-3.63C52.2,17.34,55.53,14.7,59,14.7a6.94,6.94,0,0,1,6.49,4.49,2.16,2.16,0,0,1,.17.34l0,.09A8.08,8.08,0,0,1,67,17.38a14.75,14.75,0,0,1,9.85-5.2L78,12l.28,0a2,2,0,0,1,1.24.42,2,2,0,0,1,.77,1.37s.21,2,.45,4.52a9.71,9.71,0,0,1,2.48-4.92,8.79,8.79,0,0,1,4.86-2.73c.24-6.2.26-6.25.43-6.6A2,2,0,0,1,90,2.93L94,2.37l.28,0a2,2,0,0,1,2,2c.12,2.9.27,8.71.39,13.37.07,2.52.13,4.69.17,5.89a2,2,0,0,1-1.73,2.05l-1.84.26-1,.14a26.44,26.44,0,0,1-4,.4,8.41,8.41,0,0,1-4.87-1.33,6.16,6.16,0,0,1-2.28-2.86c.11,1.24.21,2.42.28,3.4a2,2,0,0,1-1.64,2.12c-.88.15-1.75.26-2.63.37q-1,.12-2,.27a1.56,1.56,0,0,1-.31,0,2,2,0,0,1-.92-.22,11.93,11.93,0,0,1-2.74.79,6.75,6.75,0,0,1-1,.07,4.85,4.85,0,0,1-4.51-2.85c-.08-.17-.15-.35-.22-.54a9.63,9.63,0,0,1-.58,1.1,8.86,8.86,0,0,1-7.38,4.38,7.12,7.12,0,0,1-5.61-2.73L52,29.94a2,2,0,0,1-1.71,2s-14,2.07-16,2.38l-.31,0a2,2,0,0,1-1.27-.46A2,2,0,0,1,32,32.47c0-.26,0-.66,0-1.17a4.44,4.44,0,0,1-3.8,3.77,4.64,4.64,0,0,1-.63,0h0a3.78,3.78,0,0,1-2.05-.58,1.43,1.43,0,0,1-.14.2l-2.41,2.94A2,2,0,0,1,21.37,38.4Zm-6.47-19c-1.07.08-2.14.42-2.69,2.46-.44,1.63.13,4.3.83,4.82a1.4,1.4,0,0,0,.86.31c1.18,0,2.52-1.4,2.72-2.83a1.84,1.84,0,0,1,.1-.42c.17-1.73-.1-3.33-.67-4a1.1,1.1,0,0,0-1-.37Zm43.28,3.89.4-.48-.06,0-.41.48Z"/><path class="cls-5" d="M13,24.7a1.4,1.4,0,0,0,.86.31c1.18,0,2.52-1.4,2.72-2.83a1.84,1.84,0,0,1,.1-.42c.17-1.73-.1-3.33-.67-4a1.1,1.1,0,0,0-1-.37h-.2c-1.07.08-2.14.42-2.69,2.46C11.77,21.51,12.34,24.18,13,24.7Z"/><polygon class="cls-5" points="58.11 21.26 58.18 21.31 58.58 20.83 58.52 20.78 58.11 21.26"/><path class="cls-5" d="M6.08,29.65a8.17,8.17,0,0,0,5.3,5.58,8,8,0,0,0,2.41.35,9.18,9.18,0,0,0,2.88-.46,8.66,8.66,0,0,0,1.51-.64l2,1.51a2,2,0,0,0,2.77-.32l2.41-2.94a1.43,1.43,0,0,0,.14-.2,3.78,3.78,0,0,0,2.05.58h0a4.64,4.64,0,0,0,.63,0A4.44,4.44,0,0,0,32,29.3c0,.51,0,.91,0,1.17a2,2,0,0,0,.73,1.47A2,2,0,0,0,34,32.4l.31,0c2-.31,16-2.38,16-2.38a2,2,0,0,0,1.71-2l-.05-1.49a7.12,7.12,0,0,0,5.61,2.73A8.86,8.86,0,0,0,64.9,24.8a9.63,9.63,0,0,0,.58-1.1c.07.19.14.37.22.54a4.85,4.85,0,0,0,4.51,2.85,6.75,6.75,0,0,0,1-.07,11.93,11.93,0,0,0,2.74-.79,2,2,0,0,0,.92.22,1.56,1.56,0,0,0,.31,0q1-.15,2-.27c.88-.11,1.75-.22,2.63-.37a2,2,0,0,0,1.64-2.12c-.07-1-.17-2.16-.28-3.4a6.16,6.16,0,0,0,2.28,2.86,8.41,8.41,0,0,0,4.87,1.33,26.44,26.44,0,0,0,4-.4l1-.14,1.84-.26a2,2,0,0,0,1.73-2.05c0-1.2-.1-3.37-.17-5.89-.12-4.66-.27-10.47-.39-13.37a2,2,0,0,0-2-2L94,.37,90,.93A2,2,0,0,0,88.5,2.05c-.17.35-.19.4-.43,6.6a8.79,8.79,0,0,0-4.86,2.73,9.71,9.71,0,0,0-2.48,4.92c-.24-2.49-.44-4.48-.45-4.52a2,2,0,0,0-.77-1.37A2,2,0,0,0,78.27,10L78,10l-1.17.17A14.75,14.75,0,0,0,67,15.38a8.08,8.08,0,0,0-1.27,2.24l0-.09a2.16,2.16,0,0,0-.17-.34A6.94,6.94,0,0,0,59,12.7c-3.48,0-6.81,2.64-8.09,6.43a8.74,8.74,0,0,0-.46,3.63,2.11,2.11,0,0,0-.61-.1l-.28,0-6.31.89c-.33-5.22-.82-12.21-.94-13.77a2,2,0,0,0-.79-1.44A2.05,2.05,0,0,0,39.91,8c-1.48.31-3.17.54-4.81.76L33.69,9A2,2,0,0,0,32,11c0,.47,0,4.2,0,7.8,0,3.28,0,6.63,0,9a3.66,3.66,0,0,0-3.7-3.15,4.54,4.54,0,0,0-4.48,4.24l-.8-.66a21.92,21.92,0,0,0,.85-7.94L23.73,19c-.38-4.54-3.35-7.65-7.37-7.73H16a10.8,10.8,0,0,0-6.53,2,10.44,10.44,0,0,0-4.21,7.82A22.72,22.72,0,0,0,6.08,29.65Z"/><path class="cls-6" d="M50,28S36,30.09,34,30.4c-.08-2.35.06-18.3,0-19.46,2.1-.3,4.37-.56,6.36-1,.14,1.83.75,10.67,1.06,15.89l8.46-1.19Z"/><path class="cls-7" d="M19.86,30.19A7,7,0,0,1,12,33.32,6.14,6.14,0,0,1,8,29a20.81,20.81,0,0,1-.76-7.7A8.53,8.53,0,0,1,10.62,15a8.91,8.91,0,0,1,5.68-1.66c3.47.07,5.18,2.91,5.43,5.9,0,.38.06.77.09,1.19.11,3.2,0,6.5-2,9.82Zm-1.2-7.75c.36-2.71.05-7.29-3.9-7a4.74,4.74,0,0,0-4.48,3.93c-.56,2.07,0,5.75,1.57,7,2.74,2.05,6.33-.75,6.75-3.86Zm5.12,9L21.37,34.4l-2.71-2.08,2.51-3Zm4.09-.37c-2.83.39-2.83-4,0-4.43S30.72,30.68,27.87,31.09ZM63.79,18.22a6.3,6.3,0,0,1-.59,5.52c-2.49,4-7.33,4.61-9.8,1.38a5.78,5.78,0,0,1-.59-5.35c1.07-3.15,4-5.47,6.95-5a5.23,5.23,0,0,1,4,3.47Zm-2.38,2.33L58.25,18l-3,3.58,3.28,2.48ZM78.29,12s.79,7.73,1.1,11.83c-1.52.26-3,.39-4.54.63,0-.38,0-.52-.06-.91A10.48,10.48,0,0,1,70.88,25c-4.48.69-4.71-5.5-2.36-8.4A12.67,12.67,0,0,1,77,12.17L78.27,12Zm-3.47,8.35-.08-3.4-3.3.38-.12,3.54ZM94.23,2.41c.19,4.48.44,15.84.56,19.27l-1.85.26c-2.91.41-6.08,1.13-8.43-.47-2.6-1.76-2.52-5.83.17-8.73a7.32,7.32,0,0,1,4.59-2.3v1.18c-2.24.34-4,2.83-2.69,5.05.81,1.4,3.19,1.07,3.14,1,.08-2,.56-14.72.59-14.78l3.92-.56Z"/></g></g></g></g></svg>