<svg xmlns="http://www.w3.org/2000/svg" viewBox="0 0 100 40"><defs><style>.cls-1{opacity:0;}.cls-2{fill:#dcff55;fill-opacity:0.5;}.cls-3{fill:#67787a;}.cls-4{fill:#d0d9da;}.cls-5{fill:#fff;}.cls-6{fill:#798688;}.cls-7{fill:#4d5a5c;}</style></defs><g id="レイヤー_2" data-name="レイヤー 2"><g id="system_button"><g id="qsave"><g id="gide" class="cls-1"><rect class="cls-2" width="100" height="40"/></g><g id="back"><polygon class="cls-3" points="100 18.37 0 32.42 0 20.42 100 6.37 100 18.37"/><polygon class="cls-4" points="100 16.37 0 30.42 0 18.42 100 4.37 100 16.37"/></g><g id="text"><g id="border"><path class="cls-3" d="M23.36,38.13a2,2,0,0,1-1.22-.42l-2-1.51a8.81,8.81,0,0,1-1.51.65,9.4,9.4,0,0,1-2.87.45A8,8,0,0,1,13.37,37a8.13,8.13,0,0,1-5.3-5.58,22.9,22.9,0,0,1-.85-8.48,10.45,10.45,0,0,1,4.22-7.82A10.8,10.8,0,0,1,18,13h.37c4,.08,7,3.19,7.38,7.73L25.8,22A22.14,22.14,0,0,1,25,29.93l.8.66A4.45,4.45,0,0,1,29.6,26.4a4.7,4.7,0,0,1,.63,0,3.65,3.65,0,0,1,3.17,1.72c0-.75,0-1.49,0-2.22A2,2,0,0,1,35.31,24a11.46,11.46,0,0,0,3.47-.55l.17-.08h0a6.2,6.2,0,0,0-.88-.62c-.26-.17-.52-.33-.76-.51a6.55,6.55,0,0,1-3-5.73A7.67,7.67,0,0,1,39,10.31a13,13,0,0,1,3.25-.86c.22,0,2-.2,2.67-.2a2,2,0,0,1,2.16,2s0,.44,0,.44c0,.33,0,.6-.08,1a2,2,0,0,1-1.71,1.75c-.17,0-1,.11-1.44.16l-.24,0c-.76.11-1,.25-1.21.5a3.05,3.05,0,0,0-.19.24,3.2,3.2,0,0,0,.77.58c.58.32,1.16.61,1.72.89,2,1,4,2,5.32,4.24a5.67,5.67,0,0,1,.44.93,8.7,8.7,0,0,1,1.37-2.51,14.82,14.82,0,0,1,9.85-5.2l1.17-.17.28,0a2,2,0,0,1,1.25.43l.19.16.06-.11a2,2,0,0,1,1.44-1l2.44-.34.28,0a2,2,0,0,1,1.59.79l3,4,2.89-5a2,2,0,0,1,1.45-1l.2,0c1.26-.21,1.86-.3,2.19-.34a2,2,0,0,1,.43,0h.07a2,2,0,0,1,1.55.79,1.4,1.4,0,0,1,.32,1.24A9.68,9.68,0,0,1,88,10.55a5.72,5.72,0,0,1,1-.09,6.55,6.55,0,0,1,3.16.82c3.26,1.88,3.24,6.07,3.16,7.31a2,2,0,0,1-1.42,1.78,2,2,0,0,1,.48.3,2,2,0,0,1,.69,1.51v1.6a2,2,0,0,1-1.64,2,35.89,35.89,0,0,1-4.92.59h-.07A11.64,11.64,0,0,1,87,26.25a8.35,8.35,0,0,1-5.35-2.78A6.08,6.08,0,0,1,80.43,21c-.5,1.6-1.1,3.52-1.82,5.85A2,2,0,0,1,77,28.26l-6,.84-.28,0a2,2,0,0,1-1.87-1.29l-3.44-9c.25,2.64.62,6.49.8,9a2,2,0,0,1-1.64,2.12c-.87.15-1.75.26-2.62.37L60,30.56a1.73,1.73,0,0,1-.32,0,2,2,0,0,1-.92-.23,11.51,11.51,0,0,1-2.73.79,6.92,6.92,0,0,1-1,.08,4.84,4.84,0,0,1-4.51-2.85,6.12,6.12,0,0,1-.35-.93,8,8,0,0,1-1.72,2.44,14,14,0,0,1-6.32,3.22,31.71,31.71,0,0,1-6,.89,4.86,4.86,0,0,1-.83-.07,2.12,2.12,0,0,1-1.72-1.65,4.35,4.35,0,0,1-3.42,2.51,4.49,4.49,0,0,1-.62,0h0a3.78,3.78,0,0,1-2.05-.58,1.49,1.49,0,0,1-.15.2l-2.4,2.94A2,2,0,0,1,23.36,38.13Zm-6.47-19c-1.07.08-2.14.42-2.69,2.46-.44,1.63.13,4.3.83,4.82a1.4,1.4,0,0,0,.86.31c1.17,0,2.52-1.4,2.71-2.83a1.85,1.85,0,0,1,.11-.42c.16-1.73-.1-3.33-.67-4a1.12,1.12,0,0,0-1-.36Z"/><path class="cls-5" d="M15,24.42a1.4,1.4,0,0,0,.86.31c1.17,0,2.52-1.4,2.71-2.83a1.85,1.85,0,0,1,.11-.42c.16-1.73-.1-3.33-.67-4a1.12,1.12,0,0,0-1-.36h-.19c-1.07.08-2.14.42-2.69,2.46C13.76,21.23,14.33,23.9,15,24.42Z"/><path class="cls-5" d="M8.07,29.37A8.13,8.13,0,0,0,13.37,35a8,8,0,0,0,2.41.35,9.4,9.4,0,0,0,2.87-.45,8.81,8.81,0,0,0,1.51-.65l2,1.51a2,2,0,0,0,1.22.42,2,2,0,0,0,1.55-.74l2.4-2.94a1.49,1.49,0,0,0,.15-.2,3.78,3.78,0,0,0,2.05.58h0a4.49,4.49,0,0,0,.62,0,4.35,4.35,0,0,0,3.42-2.51,2.12,2.12,0,0,0,1.72,1.65,4.86,4.86,0,0,0,.83.07,31.71,31.71,0,0,0,6-.89,14,14,0,0,0,6.32-3.22,8,8,0,0,0,1.72-2.44,6.12,6.12,0,0,0,.35.93A4.84,4.84,0,0,0,55,29.23a6.92,6.92,0,0,0,1-.08,11.51,11.51,0,0,0,2.73-.79,2,2,0,0,0,.92.23,1.73,1.73,0,0,0,.32,0l1.95-.27c.87-.11,1.75-.22,2.62-.37A2,2,0,0,0,66.2,25.8c-.18-2.49-.55-6.34-.8-9l3.44,9a2,2,0,0,0,1.87,1.29l.28,0,6-.84a2,2,0,0,0,1.63-1.39c.72-2.33,1.32-4.25,1.82-5.85a6.08,6.08,0,0,0,1.22,2.45A8.35,8.35,0,0,0,87,24.25a11.64,11.64,0,0,0,1.45.09h.07a35.89,35.89,0,0,0,4.92-.59,2,2,0,0,0,1.64-2v-1.6a2,2,0,0,0-.69-1.51,2,2,0,0,0-.48-.3,2,2,0,0,0,1.42-1.78c.08-1.24.1-5.43-3.16-7.31A6.55,6.55,0,0,0,89,8.46a5.72,5.72,0,0,0-1,.09,9.68,9.68,0,0,0-5.57,3.12,1.4,1.4,0,0,0-.32-1.24,2,2,0,0,0-1.55-.79H80.5a2,2,0,0,0-.43,0c-.33,0-.93.13-2.19.34l-.2,0a2,2,0,0,0-1.45,1l-2.89,5-3-4a2,2,0,0,0-1.59-.79l-.28,0L66,11.63a2,2,0,0,0-1.44,1l-.06.11-.19-.16a2,2,0,0,0-1.25-.43l-.28,0-1.17.17a14.82,14.82,0,0,0-9.85,5.2A8.7,8.7,0,0,0,50.42,20a5.67,5.67,0,0,0-.44-.93c-1.32-2.26-3.35-3.27-5.32-4.24-.56-.28-1.14-.57-1.72-.89a3.2,3.2,0,0,1-.77-.58,3.05,3.05,0,0,1,.19-.24c.21-.25.45-.39,1.21-.5l.24,0c.44,0,1.27-.13,1.44-.16A2,2,0,0,0,47,10.71c0-.4.06-.67.08-1,0,0,0-.41,0-.44a2,2,0,0,0-2.16-2c-.68,0-2.45.17-2.67.2A13,13,0,0,0,39,8.31a7.67,7.67,0,0,0-4.71,6.2,6.55,6.55,0,0,0,3,5.73c.24.18.5.34.76.51a6.2,6.2,0,0,1,.88.62h0l-.17.08a11.46,11.46,0,0,1-3.47.55,2,2,0,0,0-1.88,1.84c0,.73,0,1.47,0,2.22a3.65,3.65,0,0,0-3.17-1.72,4.7,4.7,0,0,0-.63,0,4.45,4.45,0,0,0-3.85,4.19l-.8-.66A22.14,22.14,0,0,0,25.8,20l-.08-1.23c-.39-4.54-3.35-7.65-7.38-7.73H18a10.8,10.8,0,0,0-6.53,2.05,10.45,10.45,0,0,0-4.22,7.82A22.9,22.9,0,0,0,8.07,29.37Z"/></g><path class="cls-6" d="M48.84,21.87a5.8,5.8,0,0,1-1.77,4.58,12.32,12.32,0,0,1-5.43,2.73c-2.32.58-6.13,1.05-6.13.69,0-1.85-.22-4-.08-5.87a12.79,12.79,0,0,0,4.08-.68c2.44-1,1.38-2.86.84-3.37a15.91,15.91,0,0,0-1.87-1.33,4.61,4.61,0,0,1-2.21-4,5.67,5.67,0,0,1,3.5-4.49,10.77,10.77,0,0,1,2.74-.72,20.24,20.24,0,0,1,2.55-.16c0,.47,0,.73-.09,1.21l-1.62.17a3.69,3.69,0,0,0-2.52,1.2C39.23,13.7,40.69,15,42,15.69c2.55,1.44,5,2.11,6.3,4.41a4.23,4.23,0,0,1,.56,1.77Z"/><path class="cls-7" d="M21.85,29.91A7,7,0,0,1,14,33a6.17,6.17,0,0,1-4-4.29,20.81,20.81,0,0,1-.75-7.7,8.5,8.5,0,0,1,3.39-6.36A8.89,8.89,0,0,1,18.29,13c3.47.07,5.18,2.91,5.43,5.9,0,.38.06.77.09,1.19.11,3.2,0,6.5-2,9.82Zm-1.21-7.75c.37-2.71.06-7.29-3.89-7a4.74,4.74,0,0,0-4.48,3.93c-.56,2.07-.06,5.75,1.57,7,2.74,2,6.33-.75,6.75-3.86Zm5.13,9-2.41,3L20.64,32l2.52-3Zm4.08-.37c-2.82.39-2.82-4,0-4.43S32.71,30.4,29.85,30.81ZM63.12,14.12S63.9,21.85,64.21,26c-1.51.27-3,.4-4.54.64,0-.39,0-.53-.05-.92a10.59,10.59,0,0,1-3.92,1.5c-4.48.69-4.71-5.5-2.35-8.4a12.65,12.65,0,0,1,8.48-4.47l1.26-.18Zm-3.47,8.35-.09-3.4-3.3.38L56.15,23ZM80.51,11.62c.14,0-3.81,12.66-3.81,12.66l-6,.84-4.4-11.51,2.44-.34,4.81,6.35L78,12c.08,0,2.15-.36,2.52-.38Zm6.1,5.86a2.73,2.73,0,0,0,.81,1.85c1.65,1.58,3.42,1.17,5,.94l.62-.09v1.6a32.22,32.22,0,0,1-4.57.56,8.88,8.88,0,0,1-1.26-.08,6.41,6.41,0,0,1-4.06-2.06,5,5,0,0,1-.58-5,7.44,7.44,0,0,1,5.76-4.73,4.42,4.42,0,0,1,2.8.51c2.27,1.3,2.22,4.61,2.16,5.43Zm2.83-1.91c0-.83-.51-1.55-1.46-1.42A1.79,1.79,0,0,0,86.55,16Z"/></g></g></g></g></svg>