<svg xmlns="http://www.w3.org/2000/svg" viewBox="0 0 100 40"><defs><style>.cls-1{opacity:0;}.cls-2{fill:#dcff55;fill-opacity:0.5;}.cls-3{fill:#67787a;}.cls-4{fill:#d0d9da;}.cls-5{fill:#fff;}.cls-6{fill:#798688;}.cls-7{fill:#4d5a5c;}</style></defs><g id="レイヤー_2" data-name="レイヤー 2"><g id="system_button"><g id="save"><g id="gide" class="cls-1"><rect class="cls-2" width="100" height="40"/></g><g id="back"><polygon class="cls-3" points="100 18.37 0 32.42 0 20.42 100 6.37 100 18.37"/><polygon class="cls-4" points="100 16.37 0 30.42 0 18.42 100 4.37 100 16.37"/></g><g id="text"><path class="cls-3" d="M21.26,36.09A4.26,4.26,0,0,1,20.4,36,2.1,2.1,0,0,1,18.63,34c0-.78,0-1.61-.07-2.48a32.56,32.56,0,0,1,0-3.95,2,2,0,0,1,1.88-1.85,12.14,12.14,0,0,0,3.76-.6,1.39,1.39,0,0,0,.33-.17.78.78,0,0,0-.1-.15,6.5,6.5,0,0,0-1-.69c-.28-.18-.55-.35-.82-.54a6.89,6.89,0,0,1-3.19-6,8.06,8.06,0,0,1,5-6.52,13.29,13.29,0,0,1,3.45-.92c.22,0,2.13-.21,2.83-.21a2,2,0,0,1,2.17,2s0,.47,0,.47c0,.35,0,.63-.08,1.06A2,2,0,0,1,31,15.16l-1.59.17-.21,0c-.85.12-1.14.3-1.39.59a1.47,1.47,0,0,0-.26.37,3.2,3.2,0,0,0,.93.72c.62.35,1.24.66,1.84,1,2.09,1,4.25,2.1,5.64,4.49a6,6,0,0,1,.6,1.37,9.13,9.13,0,0,1,1.58-3.05,15.71,15.71,0,0,1,10.46-5.52l1.25-.18.29,0a2,2,0,0,1,1.24.43,1.44,1.44,0,0,1,.33.32,3,3,0,0,1,.15-.31,2,2,0,0,1,1.45-1L56,14.19l.28,0a2,2,0,0,1,1.59.79l3.34,4.41,3.2-5.53a2,2,0,0,1,1.45-1l.21,0c1.25-.21,1.9-.3,2.27-.35a2,2,0,0,1,.53-.08,2,2,0,0,1,1.62.82c.28.38.45.61.25,1.72a10.18,10.18,0,0,1,6.2-3.69,6.2,6.2,0,0,1,1-.09,6.8,6.8,0,0,1,3.31.86c3.42,2,3.4,6.39,3.31,7.69a2,2,0,0,1-1.69,1.85l-.28,0a1.92,1.92,0,0,1,1,.47,2,2,0,0,1,.68,1.51v1.71a2,2,0,0,1-1.63,2,35.56,35.56,0,0,1-5.25.63h-.09a13,13,0,0,1-1.52-.09,8.79,8.79,0,0,1-5.64-2.92,6.65,6.65,0,0,1-1.39-3.12c-.56,1.81-1.26,4-2.12,6.81A2,2,0,0,1,65,29.94l-6.42.91h-.28a2,2,0,0,1-1.86-1.28L52.4,18.92c.27,2.76.74,7.66,1,10.68a2,2,0,0,1-1.65,2.12c-.94.17-1.88.29-2.79.4-.7.09-1.4.18-2.1.29a1.73,1.73,0,0,1-.32,0,1.93,1.93,0,0,1-1-.26,12.94,12.94,0,0,1-3,.86,7.49,7.49,0,0,1-1,.08,5.05,5.05,0,0,1-4.7-3,6.8,6.8,0,0,1-.47-1.38,8.35,8.35,0,0,1-2,3,14.9,14.9,0,0,1-6.71,3.42A33.68,33.68,0,0,1,21.26,36.09Z"/><path class="cls-5" d="M18.56,29.47c0,.87.08,1.7.07,2.48A2.1,2.1,0,0,0,20.4,34a4.26,4.26,0,0,0,.86.07,33.68,33.68,0,0,0,6.43-.94,14.9,14.9,0,0,0,6.71-3.42,8.35,8.35,0,0,0,2-3,6.8,6.8,0,0,0,.47,1.38,5.05,5.05,0,0,0,4.7,3,7.49,7.49,0,0,0,1-.08,12.94,12.94,0,0,0,3-.86,1.93,1.93,0,0,0,1,.26,1.73,1.73,0,0,0,.32,0c.7-.11,1.4-.2,2.1-.29.91-.11,1.85-.23,2.79-.4a2,2,0,0,0,1.65-2.12c-.23-3-.7-7.92-1-10.68l4.07,10.66a2,2,0,0,0,1.86,1.28h.28L65,27.94a2,2,0,0,0,1.63-1.38c.86-2.77,1.56-5,2.12-6.81a6.65,6.65,0,0,0,1.39,3.12,8.79,8.79,0,0,0,5.64,2.92,13,13,0,0,0,1.52.09h.09a35.56,35.56,0,0,0,5.25-.63,2,2,0,0,0,1.63-2V21.58a2,2,0,0,0-.68-1.51,1.92,1.92,0,0,0-1-.47l.28,0a2,2,0,0,0,1.69-1.85c.09-1.3.11-5.72-3.31-7.69A6.8,6.8,0,0,0,78,9.16a6.2,6.2,0,0,0-1,.09,10.18,10.18,0,0,0-6.2,3.69c.2-1.11,0-1.34-.25-1.72a2,2,0,0,0-1.62-.82,2,2,0,0,0-.53.08c-.37,0-1,.14-2.27.35l-.21,0a2,2,0,0,0-1.45,1l-3.2,5.53L57.83,13a2,2,0,0,0-1.59-.79l-.28,0-2.61.37a2,2,0,0,0-1.45,1,3,3,0,0,0-.15.31,1.44,1.44,0,0,0-.33-.32,2,2,0,0,0-1.24-.43l-.29,0-1.25.18A15.71,15.71,0,0,0,38.18,18.8a9.13,9.13,0,0,0-1.58,3.05,6,6,0,0,0-.6-1.37C34.61,18.09,32.45,17,30.36,16c-.6-.3-1.22-.61-1.84-1a3.2,3.2,0,0,1-.93-.72,1.47,1.47,0,0,1,.26-.37c.25-.29.54-.47,1.39-.59l.21,0L31,13.16a2,2,0,0,0,1.71-1.75c0-.43.07-.71.08-1.06,0,0,0-.43,0-.47a2,2,0,0,0-2.17-2c-.7,0-2.61.18-2.83.21A13.29,13.29,0,0,0,24.4,9a8.06,8.06,0,0,0-5,6.52,6.89,6.89,0,0,0,3.19,6c.27.19.54.36.82.54a6.5,6.5,0,0,1,1,.69.78.78,0,0,1,.1.15,1.39,1.39,0,0,1-.33.17,12.14,12.14,0,0,1-3.76.6,2,2,0,0,0-1.88,1.85A32.56,32.56,0,0,0,18.56,29.47Z"/><path class="cls-6" d="M50.2,15.08s.84,8.28,1.17,12.67c-1.62.29-3.24.43-4.86.69,0-.42,0-.57-.06-1a11.12,11.12,0,0,1-4.19,1.61c-4.8.74-5-5.89-2.52-9a13.61,13.61,0,0,1,9.08-4.79l1.35-.19Zm-3.72,9-.09-3.65-3.53.41-.12,3.8Z"/><path class="cls-7" d="M34.9,23.38A6.21,6.21,0,0,1,33,28.29a13.17,13.17,0,0,1-5.81,2.92c-2.49.62-6.57,1.13-6.57.74,0-2-.24-4.28-.09-6.28a14.13,14.13,0,0,0,4.38-.74c2.6-1.05,1.47-3.05.9-3.6a17.47,17.47,0,0,0-2-1.43,5,5,0,0,1-2.37-4.26,6.09,6.09,0,0,1,3.75-4.82,12,12,0,0,1,2.93-.77,23.31,23.31,0,0,1,2.73-.17c0,.51,0,.78-.09,1.3L29,11.36a3.94,3.94,0,0,0-2.69,1.28c-1.71,2-.16,3.35,1.19,4.13,2.73,1.53,5.31,2.25,6.75,4.72a4.47,4.47,0,0,1,.6,1.89Zm33.93-11C69,12.38,64.75,26,64.75,26l-6.41.9L53.63,14.54l2.61-.37L61.4,21l4.7-8.14c.09,0,2.31-.38,2.7-.41Zm6.55,6.28a2.92,2.92,0,0,0,.87,2c1.76,1.7,3.65,1.25,5.39,1l.66-.09v1.71a34,34,0,0,1-4.89.59,8.81,8.81,0,0,1-1.35-.08,6.81,6.81,0,0,1-4.34-2.21,5.36,5.36,0,0,1-.63-5.31,8,8,0,0,1,6.17-5.06,4.77,4.77,0,0,1,3,.53c2.43,1.4,2.37,4.95,2.31,5.83Zm3-2c0-.9-.54-1.67-1.55-1.53a1.92,1.92,0,0,0-1.54,2Z"/></g></g></g></g></svg>