<svg xmlns="http://www.w3.org/2000/svg" viewBox="0 0 100 40"><defs><style>.cls-1{opacity:0;}.cls-2{fill:#dcff55;fill-opacity:0.5;}.cls-3{fill:#67787a;}.cls-4{fill:#d0d9da;}.cls-5{fill:#fff;}.cls-6{fill:#798688;}.cls-7{fill:#4d5a5c;}</style></defs><g id="レイヤー_2" data-name="レイヤー 2"><g id="system_button"><g id="screen"><g id="gide" class="cls-1"><rect class="cls-2" width="100" height="40"/></g><g id="back"><polygon class="cls-3" points="100 18.37 0 32.42 0 20.42 100 6.37 100 18.37"/><polygon class="cls-4" points="100 16.37 0 30.42 0 18.42 100 4.37 100 16.37"/></g><g id="text"><path class="cls-3" d="M8.73,37.84a4,4,0,0,1-.83-.07,2.08,2.08,0,0,1-1.76-2.05c0-.74,0-1.51-.06-2.32a32.64,32.64,0,0,1,0-3.7,2,2,0,0,1,1.88-1.85,11.46,11.46,0,0,0,3.47-.55.91.91,0,0,0,.17-.08h0a6.2,6.2,0,0,0-.88-.62c-.26-.17-.52-.34-.76-.52a6.54,6.54,0,0,1-3-5.72,7.66,7.66,0,0,1,4.71-6.2,12.58,12.58,0,0,1,3.25-.87c.22,0,2-.2,2.67-.2a2,2,0,0,1,2.16,2s0,.45,0,.45c0,.33,0,.59-.08,1a2,2,0,0,1-1.7,1.75l-1.47.15-.22,0c-.76.1-1,.24-1.21.5a1.37,1.37,0,0,0-.19.24,3,3,0,0,0,.77.57c.58.33,1.16.62,1.72.89,2,1,4,2,5.32,4.25a5.93,5.93,0,0,1,.29.56,8.66,8.66,0,0,1,1-2.11,11.43,11.43,0,0,1,6.41-4.77,22.11,22.11,0,0,1,4-.66h.18a2,2,0,0,1,2,2v1.26a2,2,0,0,1-1.72,2l-.62.08a3.61,3.61,0,0,0-2.63,1.58,2.34,2.34,0,0,0-.22.7c0,.17-.07.53.68.73l.23.07.22,0H33a7.55,7.55,0,0,0,1.17-.07l.27,0a2,2,0,0,1,2,2v4.12a2,2,0,0,1-1.65,2c-.56.1-1.22.17-1.75.23l-.59.07a15.12,15.12,0,0,1-1.82.11,8.48,8.48,0,0,1-5-1.38,8.81,8.81,0,0,1-1.18-1,6.5,6.5,0,0,1-1.29-2,8,8,0,0,1-2.05,3.32A14.15,14.15,0,0,1,14.77,37,31.61,31.61,0,0,1,8.73,37.84Zm30-4.37a2,2,0,0,1-2-2.07c0-.84.2-6.91.34-12.13a2,2,0,0,1,1.72-1.93l4.62-.65h.28a2,2,0,0,1,1.21.4,14.57,14.57,0,0,1,4-.93h0l.7,0,.86,0a2.16,2.16,0,0,1,2.13,1.44,9.72,9.72,0,0,1,5.28-2.81,5.72,5.72,0,0,1,1-.09,6.45,6.45,0,0,1,3.16.83,5.89,5.89,0,0,1,2.58,3.11,9.5,9.5,0,0,1,7.2-5.81,5.72,5.72,0,0,1,1-.09,6.55,6.55,0,0,1,3.16.82c3.26,1.88,3.24,6.07,3.16,7.31a2,2,0,0,1-1.42,1.78,1.88,1.88,0,0,1,.48.31,2,2,0,0,1,.69,1.51v1.59a2,2,0,0,1-1.64,2,34.36,34.36,0,0,1-4.92.59h-.07a11.64,11.64,0,0,1-1.45-.09,8.38,8.38,0,0,1-5.35-2.77,6.25,6.25,0,0,1-.93-1.57,2.13,2.13,0,0,1-.75.42,2.07,2.07,0,0,1,.48.31A2,2,0,0,1,65,26.42V28a2,2,0,0,1-1.63,2,34.55,34.55,0,0,1-4.92.59h-.09a11.56,11.56,0,0,1-1.43-.09,8.33,8.33,0,0,1-5.35-2.77,6.81,6.81,0,0,1-1.24-5.85A10.56,10.56,0,0,0,46,24.91c.09,2.73.17,5.48.17,5.81A2,2,0,0,1,45.63,32c-.51.58-.67.77-6.64,1.43Zm42.34-5.78a2,2,0,0,1-2-2.07c0-.83.19-6.81.33-12a2,2,0,0,1,.07-.72,2,2,0,0,1,1.63-1.44l4.62-.64a1.32,1.32,0,0,1,.28,0,1.75,1.75,0,0,1,.46.05l.14,0c.59-.06,1.47-.13,2.37-.13a9.62,9.62,0,0,1,2.34.24,7.45,7.45,0,0,1,3.91,2.4,6.6,6.6,0,0,1,1.17,1.83c0,.11.07.22.1.33.35,1.22.42,3.4.42,7,0,.45,0,.8,0,1a.45.45,0,0,1,0,.11c.18,2.19-1.7,2.36-6.23,2.78h-.19a2,2,0,0,1-2-1.74,2.35,2.35,0,0,1,0-.53c0-.47.1-2.62.1-2.87l0-.8c0-1,.1-2.1.08-3.08a.69.69,0,0,0-.61-.79c0,1.44.09,2.82.13,4,.11,3,.14,4,.14,4.24a2,2,0,0,1-1.69,2l-3.79.6-1.53.23A1.63,1.63,0,0,1,81.11,27.69Z"/><path class="cls-5" d="M36.77,29.4a2,2,0,0,0,2,2.07H39c6-.66,6.13-.85,6.64-1.43a2,2,0,0,0,.49-1.31c0-.33-.08-3.08-.17-5.81a10.56,10.56,0,0,1,4.35-3.05,6.81,6.81,0,0,0,1.24,5.85,8.33,8.33,0,0,0,5.35,2.77,11.56,11.56,0,0,0,1.43.09h.09A34.55,34.55,0,0,0,63.33,28,2,2,0,0,0,65,26V24.42a2,2,0,0,0-.68-1.51,2.07,2.07,0,0,0-.48-.31,2.13,2.13,0,0,0,.75-.42,6.25,6.25,0,0,0,.93,1.57,8.38,8.38,0,0,0,5.35,2.77,11.64,11.64,0,0,0,1.45.09h.07A34.36,34.36,0,0,0,77.27,26a2,2,0,0,0,1.64-2V22.46A2,2,0,0,0,78.22,21a1.88,1.88,0,0,0-.48-.31,2,2,0,0,0,1.42-1.78c.08-1.24.1-5.43-3.16-7.31a6.55,6.55,0,0,0-3.16-.82,5.72,5.72,0,0,0-1,.09,9.5,9.5,0,0,0-7.2,5.81,5.89,5.89,0,0,0-2.58-3.11,6.45,6.45,0,0,0-3.16-.83,5.72,5.72,0,0,0-1,.09,9.72,9.72,0,0,0-5.28,2.81,2.16,2.16,0,0,0-2.13-1.44l-.86,0-.7,0h0a14.57,14.57,0,0,0-4,.93,2,2,0,0,0-1.21-.4h-.28l-4.62.65a2,2,0,0,0-1.72,1.93C37,22.49,36.8,28.56,36.77,29.4Z"/><path class="cls-5" d="M79.11,23.62a2,2,0,0,0,2,2.07,1.63,1.63,0,0,0,.31,0L83,25.43l3.79-.6a2,2,0,0,0,1.69-2c0-.22,0-1.28-.14-4.24,0-1.21-.08-2.59-.13-4a.69.69,0,0,1,.61.79c0,1,0,2.05-.08,3.08l0,.8c0,.25-.07,2.4-.1,2.87a2.35,2.35,0,0,0,0,.53,2,2,0,0,0,2,1.74h.19c4.53-.42,6.41-.59,6.23-2.78a.45.45,0,0,0,0-.11c0-.19,0-.54,0-1,0-3.61-.07-5.79-.42-7,0-.11-.06-.22-.1-.33a6.6,6.6,0,0,0-1.17-1.83,7.45,7.45,0,0,0-3.91-2.4A9.62,9.62,0,0,0,89,8.69c-.9,0-1.78.07-2.37.13l-.14,0A1.75,1.75,0,0,0,86,8.79a1.32,1.32,0,0,0-.28,0l-4.62.64a2,2,0,0,0-1.63,1.44,2,2,0,0,0-.07.72C79.3,16.81,79.14,22.79,79.11,23.62Z"/><path class="cls-5" d="M6.08,31.4c0,.81.07,1.58.06,2.32A2.08,2.08,0,0,0,7.9,35.77a4,4,0,0,0,.83.07,31.61,31.61,0,0,0,6-.88,14.15,14.15,0,0,0,6.32-3.22,8,8,0,0,0,2.05-3.32,6.5,6.5,0,0,0,1.29,2,8.81,8.81,0,0,0,1.18,1,8.48,8.48,0,0,0,5,1.38,15.12,15.12,0,0,0,1.82-.11l.59-.07c.53-.06,1.19-.13,1.75-.23a2,2,0,0,0,1.65-2V26.3a2,2,0,0,0-2-2l-.27,0a7.55,7.55,0,0,1-1.17.07h-.59l-.22,0-.23-.07c-.75-.2-.7-.56-.68-.73a2.34,2.34,0,0,1,.22-.7,3.61,3.61,0,0,1,2.63-1.58l.62-.08a2,2,0,0,0,1.72-2V18a2,2,0,0,0-2-2h-.18a22.11,22.11,0,0,0-4,.66,11.43,11.43,0,0,0-6.41,4.77,8.66,8.66,0,0,0-1,2.11,5.93,5.93,0,0,0-.29-.56c-1.32-2.26-3.35-3.27-5.32-4.25-.56-.27-1.14-.56-1.72-.89a3,3,0,0,1-.77-.57A1.37,1.37,0,0,1,15,17c.21-.26.45-.4,1.21-.5l.22,0,1.47-.15a2,2,0,0,0,1.7-1.75c.05-.41.06-.67.08-1,0,0,0-.41,0-.45a2,2,0,0,0-2.16-2c-.67,0-2.45.17-2.67.2a12.58,12.58,0,0,0-3.25.87,7.66,7.66,0,0,0-4.71,6.2,6.54,6.54,0,0,0,3,5.72c.24.18.5.35.76.52a6.2,6.2,0,0,1,.88.62h0a.91.91,0,0,1-.17.08,11.46,11.46,0,0,1-3.47.55A2,2,0,0,0,6.06,27.7,32.64,32.64,0,0,0,6.08,31.4Z"/><path class="cls-6" d="M31.38,26.25a5.13,5.13,0,0,0,.9.13,13.67,13.67,0,0,0,2.12-.08v4.12c-.78.14-1.79.22-2.26.29a7.74,7.74,0,0,1-5.38-.93,6.28,6.28,0,0,1-.87-.74,5.33,5.33,0,0,1-.33-6.59,9.34,9.34,0,0,1,5.26-3.9,20.61,20.61,0,0,1,3.61-.6v1.26l-.61.09a5.43,5.43,0,0,0-4.12,2.62,4.55,4.55,0,0,0-.45,1.41,2.62,2.62,0,0,0,2.16,2.89Z"/><path class="cls-7" d="M21.47,25.71A5.81,5.81,0,0,1,19.7,30.3,12.3,12.3,0,0,1,14.27,33c-2.32.58-6.13,1.06-6.13.7,0-1.86-.22-4-.08-5.87a13.09,13.09,0,0,0,4.08-.69c2.44-1,1.38-2.85.84-3.36a17.27,17.27,0,0,0-1.87-1.34,4.6,4.6,0,0,1-2.21-4A5.7,5.7,0,0,1,12.4,14a11.2,11.2,0,0,1,2.74-.72,24.86,24.86,0,0,1,2.55-.16c0,.48,0,.73-.09,1.22L16,14.5a3.68,3.68,0,0,0-2.52,1.19c-1.6,1.85-.14,3.13,1.12,3.85,2.55,1.43,5,2.1,6.3,4.41a4.19,4.19,0,0,1,.56,1.77Zm29.37-8c-3,.57-5.12,2.49-6.92,4.5.12,3.43.2,6.28.2,6.56-.06.06-3.56.55-5.35.75,0-.85.2-6.92.34-12.15l4.62-.64v1.26a11.62,11.62,0,0,1,5.37-1.8,6.5,6.5,0,0,1,1.63.08c0,.65,0,.84,0,1.48Zm5.66,4.05a2.71,2.71,0,0,0,.81,1.85c1.65,1.59,3.42,1.17,5,.94l.61-.08V26a32.26,32.26,0,0,1-4.56.56,8.88,8.88,0,0,1-1.26-.08,6.31,6.31,0,0,1-4.06-2.06,5,5,0,0,1-.59-4.95,7.43,7.43,0,0,1,5.77-4.73,4.42,4.42,0,0,1,2.8.5c2.27,1.3,2.21,4.61,2.16,5.43Zm2.82-1.91c0-.83-.5-1.55-1.45-1.42a1.78,1.78,0,0,0-1.43,1.83Zm11.12-.05a2.71,2.71,0,0,0,.81,1.85c1.66,1.59,3.42,1.17,5,.94l.62-.08v1.59a32.26,32.26,0,0,1-4.56.56,8.79,8.79,0,0,1-1.26-.08A6.36,6.36,0,0,1,67,22.47a5,5,0,0,1-.58-4.95,7.42,7.42,0,0,1,5.77-4.73,4.44,4.44,0,0,1,2.8.5c2.26,1.3,2.21,4.62,2.15,5.44Zm2.83-1.91c0-.83-.5-1.55-1.46-1.42a1.78,1.78,0,0,0-1.42,1.83Zm8.15-6.4L86,10.79c.17,5.4.39,11.65.39,12.06l-5.32.84c0-.85.2-7,.34-12.23Zm13.13,2.43c.56,1.3.34,7.91.42,7.9s-3.28.51-4.42.62c0,0,.11-3,.11-3.13,0-1.29.14-2.65.11-3.93,0-1.93-1.46-3-3.92-2.81V10.81a14.21,14.21,0,0,1,4,0,5.52,5.52,0,0,1,2.92,1.81,4.46,4.46,0,0,1,.81,1.26Z"/></g></g></g></g></svg>