<svg xmlns="http://www.w3.org/2000/svg" viewBox="0 0 100 40"><defs><style>.cls-1{opacity:0;}.cls-2,.cls-4{fill:#dcff55;}.cls-2{fill-opacity:0.5;}.cls-3{fill:#4d5a5c;}.cls-5{fill:#fff;}.cls-6{fill:#5fd38d;}.cls-7{fill:#08a;}</style></defs><g id="レイヤー_2" data-name="レイヤー 2"><g id="system_button_hover" data-name="system_button hover"><g id="skip2"><g id="gide" class="cls-1"><rect class="cls-2" width="100" height="40"/></g><g id="back"><polygon class="cls-3" points="100 18.37 0 32.42 0 20.42 100 6.37 100 18.37"/><polygon class="cls-4" points="100 16.37 0 30.42 0 18.42 100 4.37 100 16.37"/></g><g id="text"><path class="cls-3" d="M67.2,37.39a2,2,0,0,1-2-2.13c.09-1.41.23-4,.4-7,.27-4.84.6-10.85.83-13.9.22-1.87,1.52-2,5-2.25,1.74-.14,3.58-.24,4.28-.24l.45,0a8.33,8.33,0,0,1,5.71,3L82,15a9.48,9.48,0,0,1,1.68,5.41A7.88,7.88,0,0,1,81.2,26a10.74,10.74,0,0,1-4.92,2.32.8.8,0,0,1-.15,0l-.41.07c.09,3.41.17,6.06.17,6.06a2,2,0,0,1-1.61,2c-1.14.23-2.27.34-3.35.46-.44,0-.87.08-1.3.14l-2.22.25Zm8.35-14.71a1.47,1.47,0,0,0,.4-.16.89.89,0,0,0,.23-1.42.79.79,0,0,0-.68-.4C75.52,21.34,75.54,22,75.55,22.68ZM21.94,36a4.37,4.37,0,0,1-.87-.07,2.1,2.1,0,0,1-1.77-2.06c0-.79,0-1.62-.06-2.49a32.54,32.54,0,0,1,0-3.95,2,2,0,0,1,1.88-1.84,12.38,12.38,0,0,0,3.75-.6,3.47,3.47,0,0,0,.34-.17.65.65,0,0,0-.1-.15,6.65,6.65,0,0,0-1-.69c-.27-.18-.55-.36-.81-.55a6.83,6.83,0,0,1-3.19-6,8.07,8.07,0,0,1,4.95-6.52A13.81,13.81,0,0,1,28.52,10c.23,0,2.14-.22,2.83-.22a2,2,0,0,1,2.18,2s0,.48,0,.48c0,.35,0,.63-.08,1.06a2,2,0,0,1-1.71,1.75l-1.48.15-.31,0c-.86.12-1.16.29-1.4.58a1.68,1.68,0,0,0-.26.37,2.65,2.65,0,0,0,.92.72c.62.35,1.25.66,1.85,1,2.09,1,4.24,2.11,5.64,4.49a6.45,6.45,0,0,1,.81,2.34,1.59,1.59,0,0,1,.08.39,8.21,8.21,0,0,1-2.49,6.53,14.93,14.93,0,0,1-6.72,3.41A33.7,33.7,0,0,1,21.94,36Zm17.72-2.47a2,2,0,0,1-2-2.08c.06-1.47.54-17.84.6-21a2,2,0,0,1,1.65-1.93c1-.19,2-.3,3-.42L44.21,8a2.15,2.15,0,0,1,.61-.09,2,2,0,0,1,1.33.5,2,2,0,0,1,.67,1.74c0,1.59.09,4.76.19,8.14h0a2.31,2.31,0,0,0,.39-1.15,2,2,0,0,1,1.69-1.88L50.45,15l2.09-.35a2.07,2.07,0,0,1,.35,0,2,2,0,0,1,1.47.64,2,2,0,0,1,.46,1.86,10.58,10.58,0,0,1-3.47,5.62l-.16.12.43.21.24.15a8.45,8.45,0,0,1,3,3.45c.83-11.51.85-11.53,1.3-12a2.18,2.18,0,0,1,.56-.44l-.47-.35A2,2,0,0,1,55.92,11l2.67-3.17a2,2,0,0,1,1.53-.71,2,2,0,0,1,1.26.45l2.79,2.25a2,2,0,0,1,.73,1.36,2,2,0,0,1-.45,1.47l-.74.88a2,2,0,0,1,1,1.58c.16,1.88.23,5.4.3,8.51,0,1.86.08,3.51.13,4.38a2,2,0,0,1-1.72,2.09l-2.28.32-1.35.19c-1,.15-1.92.29-2.86.4H56.7a2,2,0,0,1-1.19-.39,2,2,0,0,1-1.38.87c-.6.08-1.5.23-2.38.38l-1.26.22-.32,0h0a2,2,0,0,1-2-1.82,2.47,2.47,0,0,0-.45-1.18,1.7,1.7,0,0,0-.37-.34c0,1.06,0,1.76,0,1.89a2,2,0,0,1-1.71,2c-3.51.53-3.51.53-5.69.89Z"/><path class="cls-5" d="M65.21,33.26a2,2,0,0,0,2,2.13h.21l2.22-.25c.43-.06.86-.1,1.3-.14,1.08-.12,2.21-.23,3.35-.46a2,2,0,0,0,1.61-2s-.08-2.65-.17-6.06l.41-.07a.8.8,0,0,0,.15,0A10.74,10.74,0,0,0,81.2,24a7.88,7.88,0,0,0,2.49-5.58A9.48,9.48,0,0,0,82,13l-.13-.2a8.33,8.33,0,0,0-5.71-3l-.45,0c-.7,0-2.54.1-4.28.24-3.48.27-4.78.38-5,2.25-.23,3.05-.56,9.06-.83,13.9C65.44,29.23,65.3,31.85,65.21,33.26Z"/><path class="cls-5" d="M75.5,18.7c0,.64,0,1.31,0,2a1.47,1.47,0,0,0,.4-.16.89.89,0,0,0,.23-1.42A.79.79,0,0,0,75.5,18.7Z"/><path class="cls-5" d="M37.66,29.44a2,2,0,0,0,2,2.08,1.84,1.84,0,0,0,.33,0c2.18-.36,2.18-.36,5.69-.89a2,2,0,0,0,1.71-2c0-.13,0-.83,0-1.89a1.7,1.7,0,0,1,.37.34,2.47,2.47,0,0,1,.45,1.18,2,2,0,0,0,2,1.82h0l.32,0,1.26-.22c.88-.15,1.78-.3,2.38-.38a2,2,0,0,0,1.38-.87A2,2,0,0,0,56.7,29h.24c.94-.11,1.9-.25,2.86-.4l1.35-.19,2.28-.32A2,2,0,0,0,65.15,26c-.05-.87-.09-2.52-.13-4.38-.07-3.11-.14-6.63-.3-8.51a2,2,0,0,0-1-1.58l.74-.88a2,2,0,0,0,.45-1.47,2,2,0,0,0-.73-1.36L61.38,5.53a2,2,0,0,0-1.26-.45,2,2,0,0,0-1.53.71L55.92,9a2,2,0,0,0,.33,2.89l.47.35a2.18,2.18,0,0,0-.56.44c-.45.52-.47.54-1.3,12.05a8.45,8.45,0,0,0-3-3.45l-.24-.15-.43-.21.16-.12a10.58,10.58,0,0,0,3.47-5.62,2,2,0,0,0-.46-1.86,2,2,0,0,0-1.47-.64,2.07,2.07,0,0,0-.35,0L50.45,13l-1.36.22a2,2,0,0,0-1.69,1.88A2.31,2.31,0,0,1,47,16.27h0c-.1-3.38-.18-6.55-.19-8.14a2,2,0,0,0-.67-1.74,2,2,0,0,0-1.33-.5,2.15,2.15,0,0,0-.61.09l-1.32.16c-1,.12-2,.23-3,.42a2,2,0,0,0-1.65,1.93C38.2,11.6,37.72,28,37.66,29.44Z"/><path class="cls-5" d="M19.24,29.37c0,.87.07,1.7.06,2.49a2.1,2.1,0,0,0,1.77,2.06,4.37,4.37,0,0,0,.87.07,33.7,33.7,0,0,0,6.42-.94,14.93,14.93,0,0,0,6.72-3.41,8.21,8.21,0,0,0,2.49-6.53,1.59,1.59,0,0,0-.08-.39,6.45,6.45,0,0,0-.81-2.34C35.28,18,33.13,16.93,31,15.89c-.6-.3-1.23-.61-1.85-1a2.65,2.65,0,0,1-.92-.72,1.68,1.68,0,0,1,.26-.37c.24-.29.54-.46,1.4-.58l.31,0,1.48-.15a2,2,0,0,0,1.71-1.75c0-.43.06-.71.08-1.06,0,0,0-.44,0-.48a2,2,0,0,0-2.18-2c-.69,0-2.6.18-2.83.22a13.81,13.81,0,0,0-3.45.91,8.07,8.07,0,0,0-4.95,6.52,6.83,6.83,0,0,0,3.19,6c.26.19.54.37.81.55a6.65,6.65,0,0,1,1,.69.65.65,0,0,1,.1.15,3.47,3.47,0,0,1-.34.17,12.38,12.38,0,0,1-3.75.6,2,2,0,0,0-1.88,1.84A32.54,32.54,0,0,0,19.24,29.37Z"/><path class="cls-6" d="M44.82,7.89c0,3.89.57,20,.57,20.73-3.54.53-3.54.53-5.73.9.06-1.45.54-17.78.6-21,1.53-.28,3.06-.4,4.59-.62Zm5.25,11.29a11.14,11.14,0,0,1-4.14,2.32c0-.42,0-1.59,0-2a4.75,4.75,0,0,0,2.79-2.13,4.67,4.67,0,0,0,.72-2.14l3.48-.58A8.57,8.57,0,0,1,50.1,19.2Zm.57,3.67c1.41.73,2.52,2.49,3.21,4.62-.9.12-2.49.41-3.69.6a4.63,4.63,0,0,0-.9-2.27A4,4,0,0,0,46,24.4c0-.48-.06-1.85-.09-2.33,1.92,0,3.21,0,4.8.8Z"/><path class="cls-7" d="M35.58,23.28a6.25,6.25,0,0,1-1.89,4.92,13.26,13.26,0,0,1-5.82,2.92c-2.49.62-6.57,1.13-6.57.74,0-2-.24-4.29-.09-6.29a13.83,13.83,0,0,0,4.38-.73c2.61-1.06,1.47-3.06.9-3.61a17.47,17.47,0,0,0-2-1.43,5,5,0,0,1-2.37-4.25,6.08,6.08,0,0,1,3.75-4.82A11.5,11.5,0,0,1,28.8,10a23.49,23.49,0,0,1,2.73-.18c0,.52,0,.79-.09,1.31l-1.74.18A3.9,3.9,0,0,0,27,12.55c-1.71,2-.15,3.35,1.2,4.12,2.73,1.54,5.31,2.25,6.75,4.72a4.56,4.56,0,0,1,.6,1.9Zm27.15-10c.24,3,.3,10.54.42,12.84l-2.28.32c-1.38.19-2.79.42-4.17.58,0,0,.93-13,1-13l5.07-.71Zm-2.4-.8-2.88-2.18,2.67-3.17,2.79,2.25Zm20,1.71a7.43,7.43,0,0,1,1.35,4.31,5.88,5.88,0,0,1-1.83,4.1,8.88,8.88,0,0,1-4,1.86s-.84.15-.84.12V22.88a5.8,5.8,0,0,0,2.22-.79A2.85,2.85,0,0,0,77.82,18,2.8,2.8,0,0,0,75.6,16.7a11,11,0,0,0-2.16.06c.18,6.1.45,15.81.45,15.81-1.5.3-3,.39-4.5.57l-2.19.25c.24-3.72.87-16,1.23-20.9,0-.25,6.93-.71,7.5-.64a6.44,6.44,0,0,1,4.38,2.24Z"/></g></g></g></g></svg>