<svg xmlns="http://www.w3.org/2000/svg" viewBox="0 0 100 40"><defs><style>.cls-1{opacity:0;}.cls-2{fill:#dcff55;fill-opacity:0.5;}.cls-3{fill:#67787a;}.cls-4{fill:#d0d9da;}.cls-5{fill:#fff;}.cls-6{fill:#798688;}.cls-7{fill:#4d5a5c;}</style></defs><g id="レイヤー_2" data-name="レイヤー 2"><g id="system_button"><g id="sleep"><g id="gide" class="cls-1"><rect class="cls-2" width="100" height="40"/></g><g id="back"><polygon class="cls-3" points="100 18.37 0 32.42 0 20.42 100 6.37 100 18.37"/><polygon class="cls-4" points="100 16.37 0 30.42 0 18.42 100 4.37 100 16.37"/></g><g id="text"><path class="cls-3" d="M17.57,36.62c-5.62,0-9.64-3.11-10.49-8.12a13.19,13.19,0,0,1,3.37-10.86,13.48,13.48,0,0,1,3.93-3.1A17,17,0,0,1,19.19,13l.28,0a13.17,13.17,0,0,1,2.13-.29,2.08,2.08,0,0,1,2.19,2.05l.05,1.14-2,.08h0v0l.33,1.94-1.71.44a6.62,6.62,0,0,0-2.13,1.29c-1.53,1.45-2,3.9-1,5.14a2.36,2.36,0,0,0,1.6.84c.42,0,2-.14,2.58-.23a2.15,2.15,0,0,1,.5-.12h.21a2,2,0,0,1,1.83,1.18,9.32,9.32,0,0,1,.39-1.6c1.28-3.79,4.61-6.43,8.1-6.43A6.94,6.94,0,0,1,39,22.91a1.8,1.8,0,0,1,.17.34,8.22,8.22,0,0,1,.34,1.2c.05-1.69.1-3.52.14-5.26a1.86,1.86,0,0,1,.07-.7A2,2,0,0,1,41.39,17L46,16.39l.28,0a1.84,1.84,0,0,1,.47.06l.13,0a23.63,23.63,0,0,1,2.37-.14,9.62,9.62,0,0,1,2.34.24,7.54,7.54,0,0,1,3.91,2.41l.09.1v-.14a2,2,0,0,1,1.88-1.94l1.06-.07a19.74,19.74,0,0,1,1.8-6.25c1.6-3.31,4-4.21,5.69-4.38.25,0,1.13-.07,1.49-.09h.08a2,2,0,0,1,2,2v2.08a2,2,0,0,1-1.68,2c-.48.07-.71.48-.7,1.21s0,1.52,0,2.27l.44,0h.2a2,2,0,0,1,1.32.5,1.92,1.92,0,0,1,.55.8c.25-3,.36-3.12.65-3.44a1.9,1.9,0,0,1,.39-.36L70.54,13a2.06,2.06,0,0,1-.79-1.38,2,2,0,0,1,.46-1.51l2.5-2.95a2,2,0,0,1,2.78-.27l2.6,2.1a2,2,0,0,1,.74,1.36,2,2,0,0,1-.46,1.48l-.58.7A2,2,0,0,1,78.66,14c.09,1.06.15,2.68.2,4.44a10.22,10.22,0,0,1,1.28-3.08,10.6,10.6,0,0,1,5.94-4.27,22,22,0,0,1,3.14-.63l.22,0c1.47-.23,2.32-.34,2.83-.37a2.58,2.58,0,0,1,.39,0,2,2,0,0,1,1.75,1l0,0c0,.07.07.13.1.2a2,2,0,0,1,.14,1c0,1,.11,3.74.22,7.78l.1,4c.13,5.11-4,9.35-9.78,10.09l-.88.14-.27.05-.28,0a2,2,0,0,1-1.33-.51,2,2,0,0,1-.67-1.55L81.92,27a1.93,1.93,0,0,1,.15-.69,6.68,6.68,0,0,1-.84-.43A5.76,5.76,0,0,1,79,23c0,1.29.06,2.38.09,3a2,2,0,0,1-1.72,2.09l-2.13.29-1.29.19c-.88.13-1.77.26-2.64.37H71a2,2,0,0,1-1.38-.55,2,2,0,0,1-.61-1.59c.17-2.34.3-4.25.42-5.81a2,2,0,0,1-1.25.67l-.81.1c.09,3.44.17,5.9.17,5.94a2,2,0,0,1-1.78,2.05c-.61.07-2.46.34-3.95.55l-1.76.26-.28,0a2,2,0,0,1-2-2c0-.63.15-3.19.29-5.69l-.55,0a2.61,2.61,0,0,1-.48-.05c.11,1.25.13,2.95.13,5.2v1s0,.07,0,.11c.17,2.19-1.71,2.36-6.24,2.77H50.8a2,2,0,0,1-2-1.77,1.68,1.68,0,0,1,0-.5c0-.46.09-2.62.09-2.86L49,26C49,25,49,23.93,49,23a.68.68,0,0,0-.61-.79c.05,1.43.1,2.82.14,4,.1,3,.13,4,.13,4.24a2,2,0,0,1-1.68,2L43.2,33l-1.53.24-.31,0a2,2,0,0,1-2-2.06c0-.33,0-1.46.09-3a8.53,8.53,0,0,1-1,2.33,8.86,8.86,0,0,1-7.38,4.38,7.14,7.14,0,0,1-5.71-2.85,7,7,0,0,1-1-1.85c.06,1.35.12,2.76.15,3.32a2,2,0,0,1-1.16,1.91,14.65,14.65,0,0,1-5.27,1.18ZM31.72,27l.4-.48-.06-.05-.41.48ZM85.65,21.6h.4c0-.61.06-1.23.08-1.84a2.24,2.24,0,0,0-.23.34A2,2,0,0,0,85.65,21.6Z"/><path class="cls-5" d="M85.65,19.6h.4c0-.61.06-1.23.08-1.84a2.24,2.24,0,0,0-.23.34A2,2,0,0,0,85.65,19.6Z"/><path class="cls-5" d="M7.08,26.5c.85,5,4.87,8.12,10.49,8.12h.52a14.65,14.65,0,0,0,5.27-1.18,2,2,0,0,0,1.16-1.91c0-.56-.09-2-.15-3.32a7,7,0,0,0,1,1.85,7.14,7.14,0,0,0,5.71,2.85,8.86,8.86,0,0,0,7.38-4.38,8.53,8.53,0,0,0,1-2.33c0,1.56-.07,2.69-.09,3a2,2,0,0,0,2,2.06l.31,0L43.2,31l3.8-.59a2,2,0,0,0,1.68-2c0-.22,0-1.28-.13-4.24,0-1.21-.09-2.6-.14-4A.68.68,0,0,1,49,21c0,1,0,2-.07,3.05l0,.83c0,.24-.07,2.4-.09,2.86a1.68,1.68,0,0,0,0,.5,2,2,0,0,0,2,1.77H51c4.53-.41,6.41-.58,6.24-2.77,0,0,0-.08,0-.11v-1c0-2.25,0-3.95-.13-5.2a2.61,2.61,0,0,0,.48.05l.55,0c-.14,2.5-.29,5.06-.29,5.69a2,2,0,0,0,2,2l.28,0,1.76-.26c1.49-.21,3.34-.48,3.95-.55a2,2,0,0,0,1.78-2.05s-.08-2.5-.17-5.94l.81-.1A2,2,0,0,0,69.47,19c-.12,1.56-.25,3.47-.42,5.81a2,2,0,0,0,.61,1.59A2,2,0,0,0,71,27h.24c.87-.11,1.76-.24,2.64-.37l1.29-.19,2.13-.29A2,2,0,0,0,79.06,24c0-.64-.06-1.73-.09-3a5.76,5.76,0,0,0,2.26,2.84,6.68,6.68,0,0,0,.84.43,1.93,1.93,0,0,0-.15.69l-.14,5.36a2,2,0,0,0,.67,1.55,2,2,0,0,0,1.33.51l.28,0,.27-.05.88-.14c5.8-.74,9.91-5,9.78-10.09l-.1-4c-.11-4-.18-6.78-.22-7.78a2,2,0,0,0-.14-1c0-.07-.07-.13-.1-.2l0,0a2,2,0,0,0-1.75-1,2.58,2.58,0,0,0-.39,0c-.51,0-1.36.14-2.83.37l-.22,0a22,22,0,0,0-3.14.63,10.6,10.6,0,0,0-5.94,4.27,10.22,10.22,0,0,0-1.28,3.08c0-1.76-.11-3.38-.2-4.44a2,2,0,0,0-.87-1.49l.58-.7a2,2,0,0,0,.46-1.48,2,2,0,0,0-.74-1.36l-2.6-2.1a2,2,0,0,0-2.78.27l-2.5,3a2,2,0,0,0-.46,1.51A2.06,2.06,0,0,0,70.54,11l.28.21a1.9,1.9,0,0,0-.39.36c-.29.32-.4.45-.65,3.44a1.92,1.92,0,0,0-.55-.8,2,2,0,0,0-1.32-.5h-.2l-.44,0c0-.75,0-1.51,0-2.27s.22-1.14.7-1.21a2,2,0,0,0,1.68-2V6.15a2,2,0,0,0-2-2h-.08c-.36,0-1.24.06-1.49.09-1.71.17-4.09,1.07-5.69,4.38a19.74,19.74,0,0,0-1.8,6.25l-1.06.07a2,2,0,0,0-1.88,1.94V17l-.09-.1a7.54,7.54,0,0,0-3.91-2.41,9.62,9.62,0,0,0-2.34-.24,23.63,23.63,0,0,0-2.37.14l-.13,0a1.84,1.84,0,0,0-.47-.06l-.28,0L41.39,15a2,2,0,0,0-1.63,1.45,1.86,1.86,0,0,0-.07.7c0,1.74-.09,3.57-.14,5.26a8.22,8.22,0,0,0-.34-1.2,1.8,1.8,0,0,0-.17-.34,6.94,6.94,0,0,0-6.48-4.49c-3.49,0-6.82,2.64-8.1,6.43a9.32,9.32,0,0,0-.39,1.6,2,2,0,0,0-1.83-1.18H22a2.15,2.15,0,0,0-.5.12c-.58.09-2.16.21-2.58.23a2.36,2.36,0,0,1-1.6-.84c-1-1.24-.54-3.69,1-5.14a6.62,6.62,0,0,1,2.13-1.29l1.71-.44L21.85,14v0h0l2-.08-.05-1.14a2.08,2.08,0,0,0-2.19-2.05,13.17,13.17,0,0,0-2.13.29l-.28,0a17,17,0,0,0-4.81,1.52,13.48,13.48,0,0,0-3.93,3.1A13.19,13.19,0,0,0,7.08,26.5Z"/><polygon class="cls-5" points="31.65 24.98 31.72 25.03 32.12 24.55 32.05 24.5 31.65 24.98"/><path class="cls-6" d="M37.33,21.94a6.26,6.26,0,0,1-.59,5.52c-2.49,4-7.33,4.61-9.8,1.38a5.77,5.77,0,0,1-.58-5.36c1.06-3.14,4-5.46,6.94-5a5.23,5.23,0,0,1,4,3.47ZM35,24.27l-3.16-2.56-3,3.59L32,27.78Z"/><path class="cls-7" d="M22.52,31.61a12.47,12.47,0,0,1-4.51,1c-4.48.15-8.2-2-9-6.44A11.24,11.24,0,0,1,11.94,17a11.72,11.72,0,0,1,3.35-2.65A15.25,15.25,0,0,1,19.58,13c.19,0,2.21-.45,2.21-.25,0,.56.06,1.22.06,1.22s-1.85.46-2,.51A8.91,8.91,0,0,0,17,16.21c-2.24,2.14-2.86,5.72-1.15,7.83a4.32,4.32,0,0,0,3.08,1.59,21.35,21.35,0,0,0,3.36-.36C22.24,25.35,22.46,30.42,22.52,31.61ZM41.67,17l4.62-.65c.17,5.41.39,11.65.39,12.07-2.94.47-3.5.55-5.32.83,0-.84.2-7,.34-12.23ZM54.8,19.46c.56,1.29.34,7.9.42,7.89S52,27.87,50.8,28c0,0,.11-2.95.11-3.12.06-1.3.14-2.65.11-3.94,0-1.92-1.45-3-3.92-2.81V16.4a13.57,13.57,0,0,1,4,.05A5.53,5.53,0,0,1,54,18.25a4.61,4.61,0,0,1,.81,1.26Zm5-2.66-.09,2.05-2.15.08.05-2ZM67.6,8.25a2.92,2.92,0,0,0-2.38,3.22c.14,7.12.36,14.31.36,14.31-.92.11-4.25.6-5.77.82,0-.93.37-7,.57-9.94A18.54,18.54,0,0,1,62.14,9.5a5.12,5.12,0,0,1,4.09-3.27c.17,0,.81-.05,1.37-.08v2.1ZM68,17.69,65.83,18l0-2.1,2.13-.21Zm8.71-5.56c.23,2.77.28,9.85.39,12l-2.12.3c-1.29.18-2.61.4-3.9.55,0,0,.87-12.11.9-12.14l4.73-.66Zm-2.24-.75-2.69-2L74.23,6.4l2.61,2.09ZM92.66,10c0,.06.19,6.86.33,12.14.12,4.38-3.64,7.48-8,8-.73.1-1,.18-1.18.2L83.92,25l.39-.06c2-.27,3.56-1.22,3.64-3.2.12-2.17.23-5.07.31-6.9a10.78,10.78,0,0,0-2,.51,3.83,3.83,0,0,0-2.08,1.75c-.84,1.43-.86,3.59.59,4.31a4.62,4.62,0,0,0,2.07.16v1.12s-.75.1-.78.11a6.51,6.51,0,0,1-3.78-.68,4,4,0,0,1-1.71-3.34,8.75,8.75,0,0,1,1.26-4.38A8.71,8.71,0,0,1,86.64,11a22.11,22.11,0,0,1,2.85-.57,22.36,22.36,0,0,1,3.2-.36Z"/></g></g></g></g></svg>