<svg xmlns="http://www.w3.org/2000/svg" viewBox="0 0 100 40"><defs><style>.cls-1{opacity:0;}.cls-2{fill:#dcff55;fill-opacity:0.5;}.cls-3{fill:#67787a;}.cls-4{fill:#d0d9da;}.cls-5{fill:#fff;}.cls-6{fill:#798688;}.cls-7{fill:#4d5a5c;}</style></defs><g id="レイヤー_2" data-name="レイヤー 2"><g id="system_button"><g id="title"><g id="gide" class="cls-1"><rect class="cls-2" width="100" height="40"/></g><g id="back"><polygon class="cls-3" points="100 18.37 0 32.42 0 20.42 100 6.37 100 18.37"/><polygon class="cls-4" points="100 16.37 0 30.42 0 18.42 100 4.37 100 16.37"/></g><g id="text"><path class="cls-3" d="M22.34,36A2,2,0,0,1,21,35.47a2,2,0,0,1-.66-1.53c.08-3.66.27-12,.35-15.54L16.63,19l-.29,0A2,2,0,0,1,15,18.47a2,2,0,0,1-.63-1.61c0-.36,0-1.33,0-1.91a9.12,9.12,0,0,1,0-1.3A2,2,0,0,1,16,11.89h.12c4.69-.55,13.34-1.77,18.08-2.46l.32,0,.27,0a2,2,0,0,1,1.37.54,2,2,0,0,1,.63,1.59c0,.71,0,1.56-.06,2.33l.14-.18,2.67-3.16a2,2,0,0,1,2.78-.27l2.79,2.25a2,2,0,0,1,.28,2.84l-.73.88a2.14,2.14,0,0,1,.71.66,2,2,0,0,1,1.72-1.4l1.49-.14c.13-2.82.35-6.17.36-6.37a2,2,0,0,1,1.72-1.85l4.29-.6a1.27,1.27,0,0,1,.28,0,2,2,0,0,1,1.86,1.29c.18.45.19.48.35,6.34h0l1.18-.19a1.77,1.77,0,0,1,.32,0,2,2,0,0,1,2,2v2.82a2,2,0,0,1-.76,1.57,1.24,1.24,0,0,1,.23.17,2,2,0,0,1,.68,1.5v6.9a2,2,0,0,1-1.56,1.95c-.23.06-.69.13-1.25.22l-1.16.19a9.86,9.86,0,0,1-1.67.15,6.82,6.82,0,0,1-5.2-2.24c-1.89-2.05-2.11-4.69-2-7.11l-1,.08h-.16a2,2,0,0,1-1.25-.43c0,1.47.09,3.08.12,4.59,0,1.87.08,3.51.12,4.39a2,2,0,0,1-1.72,2.08l-2.28.32-1.35.2c-1,.14-1.91.28-2.86.39l-.23,0a2,2,0,0,1-2-2.15c1-13.63,1-13.63,1.45-14.17a1.78,1.78,0,0,1,.57-.45l-.48-.36a2.05,2.05,0,0,1-.75-1.16,2,2,0,0,1-1.38.94c-.75.13-2.43.37-4.5.68,0,.05,0,.1,0,.16.09.84.21,2,.34,3.33.25,2.63.56,5.89.79,8.4.19,2,.33,3.58.36,3.82a2,2,0,0,1-1.65,2.23c-1,.17-7.1,1-7.79,1Zm41.49-6a2,2,0,0,1-2-2.08c.05-1.35.57-17.52.63-20.74A2,2,0,0,1,64.1,5.22c1.05-.19,2.09-.31,3.09-.43l1.73-.22h.31a2,2,0,0,1,2,1.73,2.49,2.49,0,0,1,0,.61c0,2.24.17,7.36.32,11.9a9.13,9.13,0,0,1,.42-1.57,10,10,0,0,1,7.69-6.35,5.32,5.32,0,0,1,1.05-.09,6.9,6.9,0,0,1,3.31.85c3.42,2,3.4,6.39,3.31,7.7a2,2,0,0,1-1.69,1.84l-.28,0a2.08,2.08,0,0,1,1,.47A2,2,0,0,1,87,23.19V24.9a2,2,0,0,1-1.63,2,38.6,38.6,0,0,1-5.25.63h-.09a11.19,11.19,0,0,1-1.52-.1,8.74,8.74,0,0,1-5.64-2.92,6.53,6.53,0,0,1-1.28-2.55c0,.43,0,.86,0,1.26.09,2.79.12,3.79.12,4a2,2,0,0,1-1.72,2c-1.54.21-3.86.54-6,.78Z"/><path class="cls-5" d="M61.83,25.89a2,2,0,0,0,2,2.08h.22c2.16-.24,4.48-.57,6-.78a2,2,0,0,0,1.72-2c0-.21,0-1.21-.12-4,0-.4,0-.83,0-1.26a6.53,6.53,0,0,0,1.28,2.55,8.74,8.74,0,0,0,5.64,2.92,11.19,11.19,0,0,0,1.52.1h.09a38.6,38.6,0,0,0,5.25-.63,2,2,0,0,0,1.63-2V21.19a2,2,0,0,0-.68-1.51,2.08,2.08,0,0,0-1-.47l.28,0a2,2,0,0,0,1.69-1.84c.09-1.31.11-5.72-3.31-7.7a6.9,6.9,0,0,0-3.31-.85,5.32,5.32,0,0,0-1.05.09,10,10,0,0,0-7.69,6.35,9.13,9.13,0,0,0-.42,1.57c-.15-4.54-.31-9.66-.32-11.9a2.49,2.49,0,0,0,0-.61,2,2,0,0,0-2-1.73h-.31l-1.73.22c-1,.12-2,.24-3.09.43a2,2,0,0,0-1.64,1.93C62.4,8.37,61.88,24.54,61.83,25.89Z"/><path class="cls-5" d="M14.3,13c0,.58.07,1.55,0,1.91A2,2,0,0,0,15,16.47a2,2,0,0,0,1.37.54l.29,0,4.06-.59c-.08,3.52-.27,11.88-.35,15.54A2,2,0,0,0,21,33.47a2,2,0,0,0,1.34.51h.25c.69-.09,6.82-.87,7.79-1A2,2,0,0,0,32,30.7c0-.24-.17-1.78-.36-3.82-.23-2.51-.54-5.77-.79-8.4-.13-1.33-.25-2.49-.34-3.33,0-.06,0-.11,0-.16,2.07-.31,3.75-.55,4.5-.68a2,2,0,0,0,1.38-.94,2.05,2.05,0,0,0,.75,1.16l.48.36a1.78,1.78,0,0,0-.57.45c-.47.54-.47.54-1.45,14.17a2,2,0,0,0,2,2.15l.23,0c.95-.11,1.91-.25,2.86-.39l1.35-.2,2.28-.32a2,2,0,0,0,1.72-2.08c0-.88-.08-2.52-.12-4.39,0-1.51-.07-3.12-.12-4.59a2,2,0,0,0,1.25.43h.16l1-.08c-.1,2.42.12,5.06,2,7.11a6.82,6.82,0,0,0,5.2,2.24,9.86,9.86,0,0,0,1.67-.15L58.24,29c.56-.09,1-.16,1.25-.22a2,2,0,0,0,1.56-1.95V20a2,2,0,0,0-.68-1.5,1.24,1.24,0,0,0-.23-.17,2,2,0,0,0,.76-1.57V13.89a2,2,0,0,0-2-2,1.77,1.77,0,0,0-.32,0l-1.18.19h0c-.16-5.86-.17-5.89-.35-6.34a2,2,0,0,0-1.86-1.29,1.27,1.27,0,0,0-.28,0l-4.29.6A2,2,0,0,0,48.9,6.93c0,.2-.23,3.55-.36,6.37l-1.49.14a2,2,0,0,0-1.72,1.4,2.14,2.14,0,0,0-.71-.66l.73-.88a2,2,0,0,0-.28-2.84L42.28,8.21a2,2,0,0,0-2.78.27l-2.67,3.16-.14.18c0-.77,0-1.62.06-2.33a2,2,0,0,0-.63-1.59,2,2,0,0,0-1.37-.54l-.27,0-.32,0c-4.74.69-13.39,1.91-18.08,2.46H16a2,2,0,0,0-1.67,1.76A9.12,9.12,0,0,0,14.3,13Z"/><path class="cls-6" d="M43.64,15.91c.24,3,.3,10.55.41,12.84l-2.27.32c-1.38.2-2.79.42-4.17.59,0,0,.93-13,1-13l5.07-.71Zm-2.4-.8-2.88-2.18L41,9.77,43.81,12Z"/><path class="cls-7" d="M16.31,11.86c5.94-.68,18.26-2.48,18.44-2.5-.06.94-.06,2.05-.06,3-2.4.4-14.54,2.1-18.35,2.67.06-.79-.09-2.87-.06-3.14Zm6.42,2.88c1.29-.12,5.12-.66,5.63-.7C28.51,14,30,30.28,30,31c-1,.17-7.7,1-7.7,1s.39-16.79.39-17.18Zm24.51.7,2.67-.26-.18,2.7-2.67.22ZM56.74,20A8.55,8.55,0,0,0,59.05,20v6.9c-.36.08-1.35.22-2.31.39a5.19,5.19,0,0,1-5.06-1.48c-2.28-2.47-1.29-6.36-1.23-9.58,0-2.55.45-9.12.45-9.12l4.28-.6c.12.31.27,9.08.42,11.7A1.93,1.93,0,0,0,56.77,20Zm2.16-3.3-2.85.46,0-2.83,2.82-.45ZM69.19,4.55c0,3.9.6,20,.6,20.64-1.53.22-3.83.54-6,.78.06-1.45.57-17.57.63-20.78,1.59-.29,3.18-.42,4.76-.64ZM78.1,18.3a2.89,2.89,0,0,0,.87,2c1.77,1.71,3.66,1.26,5.4,1l.66-.1V22.9a34,34,0,0,1-4.89.6,10.19,10.19,0,0,1-1.35-.08,6.79,6.79,0,0,1-4.34-2.21,5.36,5.36,0,0,1-.63-5.31A8,8,0,0,1,80,10.83a4.77,4.77,0,0,1,3,.54c2.43,1.4,2.37,5,2.31,5.82Zm3-2.05c0-.9-.54-1.66-1.56-1.52a1.91,1.91,0,0,0-1.53,2Z"/></g></g></g></g></svg>